<svg aria-hidden="true" style="position: absolute; width: 0; height: 0; overflow: hidden;" version="1.1" xmlns="http://www.w3.org/2000/svg" xmlns:xlink="http://www.w3.org/1999/xlink">
<defs>
<symbol id="icon-Ellipse-3" viewBox="0 0 32 32">
<path d="M32 16c0 8.837-7.163 16-16 16s-16-7.163-16-16c0-8.837 7.163-16 16-16s16 7.163 16 16z"></path>
</symbol>
<symbol id="icon-facebook" viewBox="0 0 32 32">
<path d="M19.52 4.64h0.96v3.6h-1.2c-0.48 0-0.96 0-1.2 0.24s-0.24 0.48-0.24 1.040v1.28h2.64v3.040h-2.64v13.2h-4.080v-13.28h-2.16v-3.040h2.16v-1.040c0-1.76 0.24-3.040 0.72-3.6 0.72-1.040 2.16-1.52 4.32-1.52 0.24 0.080 0.48 0.080 0.72 0.080z"></path>
</symbol>
<symbol id="icon-instagram" viewBox="0 0 32 32">
<path d="M28.718 10.757c-0.015-1.134-0.233-2.213-0.617-3.208l0.021 0.063c-0.682-1.722-2.021-3.059-3.7-3.722l-0.044-0.015c-0.921-0.356-1.985-0.573-3.097-0.596l-0.010-0c-1.367-0.061-1.801-0.078-5.271-0.078-3.472 0-3.917 0-5.274 0.078-1.063 0.023-2.113 0.223-3.106 0.597-1.723 0.678-3.062 2.015-3.727 3.693l-0.015 0.044c-0.357 0.919-0.574 1.981-0.595 3.091l-0 0.009c-0.062 1.367-0.080 1.8-0.080 5.265 0 3.466 0 3.909 0.080 5.265 0.021 1.063 0.222 2.11 0.594 3.104 0.682 1.721 2.022 3.058 3.701 3.721l0.044 0.015c0.917 0.37 1.979 0.601 3.091 0.638l0.016 0c1.369 0.061 1.802 0.080 5.274 0.080s3.917 0 5.274-0.080c1.122-0.023 2.187-0.239 3.172-0.616l-0.064 0.022c1.722-0.68 3.061-2.016 3.727-3.693l0.016-0.044c0.374-0.994 0.575-2.041 0.595-3.104 0.062-1.366 0.080-1.799 0.080-5.266-0.002-3.465-0.002-3.905-0.082-5.263zM15.989 22.531c-0.002 0-0.004 0-0.007 0-3.624 0-6.563-2.937-6.565-6.561v-0c0.003-3.624 2.941-6.561 6.566-6.561 0.002 0 0.004 0 0.006 0h-0c3.629 0 6.571 2.937 6.571 6.561-0.004 3.624-2.942 6.56-6.567 6.56-0.002 0-0.003 0-0.005 0h0zM22.823 10.696c-0.845 0-1.53-0.685-1.53-1.53s0.685-1.53 1.53-1.53v0c0.845 0 1.53 0.685 1.53 1.53s-0.685 1.53-1.53 1.53v0z"></path>
<path d="M15.992 19.976c2.211 0 4.004-1.793 4.004-4.004s-1.793-4.004-4.004-4.004v0c-2.211 0-4.004 1.793-4.004 4.004s1.793 4.004 4.004 4.004v0z"></path>
</symbol>
<symbol id="icon-tdesign_cabbage" viewBox="0 0 32 32">
<path d="M17.488 4.624c-0.468-0.705-1.078-1.279-1.792-1.693l-0.026-0.014c-2.011-1.152-4.602-0.95-6.992 0.389-4.438 2.486-7.344 7.162-7.344 12.694 0 7.387 5.346 13.35 12.328 14.48 0.763 0.123 1.542 0.187 2.338 0.187 0.015 0 0.032 0 0.049 0 8.074 0 14.619-6.545 14.619-14.619 0-0.057-0-0.114-0.001-0.17l0 0.009c-0.032-2.576-1.064-5.738-2.698-8.264-1.627-2.517-4.128-4.81-7.237-4.781-1.517 0.003-2.552 0.837-3.245 1.784v-0.002zM26.362 10.15c-0.302-0.051-0.649-0.080-1.003-0.080-0.24 0-0.477 0.013-0.71 0.039l0.029-0.003-1.546-2.6-2.291 1.36 1.189 2c-0.496 0.234-0.973 0.512-1.419 0.832-0.021-0.072-0.029-0.098-0.037-0.123l0.013 0.046c-0.357-1.080-1.045-1.966-1.962-2.848l0.005-0.026c0.093-0.432 0.24-0.987 0.459-1.528 0.496-1.221 1.075-1.715 1.653-1.715h0.016c1.72-0.019 3.514 1.302 4.974 3.562 0.226 0.35 0.437 0.712 0.632 1.082l-0.002 0.002zM18.147 14.147c-0.478 0.010-0.938 0.066-1.381 0.164l0.047-0.009c-0.369-0.61-0.842-1.119-1.401-1.516l-0.015-0.010c-0.696-0.507-1.568-0.811-2.511-0.811-0.556 0-1.087 0.106-1.574 0.298l0.029-0.010c-0.142-0.083-0.286-0.163-0.432-0.242l4.31-4.226-1.866-1.904-5.114 5.011c-1.080-0.312-2.090-0.424-2.997-0.299 1.067-2.111 2.692-3.808 4.683-4.933l0.058-0.030c1.819-1.018 3.382-0.962 4.362-0.4 0.933 0.534 1.707 1.747 1.514 3.915l-0.061 0.67 0.504 0.448c1.096 0.968 1.552 1.595 1.75 2.192 0.138 0.421 0.184 0.928 0.094 1.691zM14.4 15.486c-1.139 0.954-1.904 2.291-2.347 3.736l-3.965-4.352-1.973 1.797 5.451 5.984c-0.006 1.589 0.197 3.216 0.493 4.686-4.729-1.659-8.059-6.085-8.059-11.289 0-0.017 0-0.034 0-0.051v0.003c0-1.387 0.384-2.144 0.838-2.474 0.429-0.314 1.368-0.571 3.293 0.139 0.696 0.256 1.502 0.651 2.424 1.226l0.669 0.416 0.688-0.387c0.832-0.467 1.466-0.301 1.952 0.040 0.213 0.149 0.395 0.336 0.536 0.528zM16.752 27.976l9.723-10.715-1.974-1.792-3.909 4.307 0.010-1.352-2.667-0.019-0.030 4.334-3.312 3.648c-0.25-1.36-0.4-2.824-0.352-4.195 0.086-2.339 1.021-4.262 2.403-5.024 0.574-0.315 1.586-0.44 2.386-0.299l1.187 0.208 0.326-1.16c0.171-0.603 0.624-1.25 1.33-1.826 0.717-0.581 1.552-0.997 2.445-1.222 1.069-0.261 1.979-0.125 2.579 0.288 0.525 0.36 1.051 1.096 1.101 2.606v0.024l0.003 0.213c0 0.016 0 0.034 0 0.052 0 6.352-4.958 11.545-11.215 11.922l-0.033 0.002z"></path>
</symbol>
<symbol id="icon-youtube" viewBox="0 0 32 32">
<path d="M24.24 6c-1.36-0.080-4.16-0.16-8.4-0.16h-0.56c-4.080 0-6.8 0.080-8.16 0.24-1.84 0.16-3.12 0.64-3.84 1.28-0.64 0.56-1.12 1.6-1.28 2.96-0.080 0.88-0.16 2.72-0.16 5.52v0.4c0 2.64 0.080 4.48 0.24 5.36 0.24 1.28 0.64 2.24 1.44 2.8 0.8 0.64 2.16 1.040 4.080 1.2 1.36 0.080 4.16 0.16 8.4 0.16h0.56c4.080 0 6.8-0.080 8.16-0.24 1.84-0.16 3.12-0.64 3.84-1.28 0.64-0.56 1.12-1.6 1.28-2.96 0.080-0.88 0.16-2.72 0.16-5.52v-0.4c0-2.64-0.080-4.48-0.24-5.36-0.24-1.28-0.64-2.24-1.44-2.8-0.8-0.64-2.16-1.040-4.080-1.2zM21.12 15.84l-8.8 5.28v-10.56l8.8 5.28z"></path>
</symbol>
</defs>
</svg>
