<svg aria-hidden="true" style="position: absolute; width: 0; height: 0; overflow: hidden;" version="1.1" xmlns="http://www.w3.org/2000/svg" xmlns:xlink="http://www.w3.org/1999/xlink">
<defs>
<symbol id="icon-cart" viewBox="0 0 30 32">
    <path d="M2.709 1.723c-0.457 0-0.895 0.182-1.218 0.505s-0.505 0.761-0.505 1.218c0 0.457 0.182 0.895 0.505 1.218s0.761 0.505 1.218 0.505h2.102l0.526 2.106c0.005 0.024 0.011 0.048 0.017 0.072l2.34 9.356-1.539 1.537c-2.171 2.171-0.634 5.883 2.436 5.883h14.794c0.457 0 0.895-0.182 1.218-0.505s0.505-0.761 0.505-1.218-0.182-0.895-0.505-1.218c-0.323-0.323-0.761-0.505-1.218-0.505h-14.794l1.723-1.723h11.348c0.32-0 0.633-0.089 0.906-0.258s0.492-0.409 0.635-0.695l5.169-10.338c0.131-0.263 0.193-0.554 0.18-0.848s-0.101-0.578-0.256-0.828c-0.154-0.25-0.37-0.456-0.626-0.599s-0.545-0.218-0.839-0.218h-18.471l-0.534-2.142c-0.093-0.373-0.308-0.703-0.611-0.94s-0.676-0.365-1.060-0.365h-3.446zM25.109 28.431c0 0.686-0.272 1.343-0.757 1.828s-1.142 0.757-1.828 0.757-1.343-0.272-1.828-0.757c-0.485-0.485-0.757-1.142-0.757-1.828s0.272-1.343 0.757-1.827 1.142-0.757 1.828-0.757c0.686 0 1.343 0.272 1.828 0.757s0.757 1.142 0.757 1.827zM8.739 31.015c0.685 0 1.343-0.272 1.828-0.757s0.757-1.142 0.757-1.828c0-0.685-0.272-1.343-0.757-1.827s-1.142-0.757-1.828-0.757c-0.685 0-1.343 0.272-1.828 0.757s-0.757 1.142-0.757 1.827c0 0.686 0.272 1.343 0.757 1.828s1.142 0.757 1.828 0.757z"></path>
</symbol>
<symbol id="icon-logo" viewBox="0 0 34 32">
    <path d="M18.652 2.799c-0.494-0.751-1.158-1.374-1.939-1.82-2.145-1.23-4.908-1.014-7.458 0.414-4.735 2.652-7.835 7.639-7.835 13.541 0 7.879 5.703 14.241 13.151 15.445 0.814 0.131 1.646 0.199 2.493 0.199 2.067 0.007 4.114-0.396 6.024-1.187s3.642-1.954 5.098-3.421 2.605-3.209 3.382-5.124c0.777-1.915 1.165-3.966 1.141-6.032-0.033-2.748-1.135-6.12-2.877-8.815-1.735-2.685-4.403-5.131-7.718-5.1-1.618 0.003-2.724 0.893-3.462 1.903v-0.001zM28.117 8.694c-0.594-0.095-1.198-0.111-1.796-0.047l-1.65-2.773-2.444 1.451 1.269 2.133c-0.531 0.25-1.038 0.547-1.515 0.889-0.008-0.028-0.017-0.055-0.026-0.082-0.38-1.152-1.114-2.098-2.092-3.038l0.006-0.028c0.098-0.459 0.255-1.052 0.489-1.628 0.53-1.303 1.146-1.83 1.764-1.83h0.016c1.836-0.020 3.749 1.389 5.306 3.799 0.242 0.374 0.466 0.759 0.674 1.155l-0.002 0.001zM19.355 12.956c-0.469 0.011-0.951 0.064-1.422 0.166-0.384-0.643-0.898-1.197-1.51-1.628-1.124-0.789-2.662-1.18-4.326-0.559-0.152-0.088-0.306-0.174-0.461-0.257l4.598-4.507-1.991-2.031-5.454 5.346c-1.152-0.334-2.229-0.454-3.196-0.32 1.113-2.234 2.875-4.079 5.056-5.294 1.94-1.087 3.608-1.027 4.652-0.428 0.996 0.57 1.822 1.865 1.614 4.177l-0.064 0.715 0.538 0.476c1.169 1.034 1.655 1.702 1.866 2.341 0.148 0.448 0.196 0.99 0.101 1.802zM15.359 14.386c-1.215 1.017-2.030 2.443-2.503 3.985l-4.23-4.644-2.103 1.917 5.814 6.383c-0.007 1.695 0.21 3.43 0.526 4.999-2.517-0.864-4.7-2.496-6.242-4.665s-2.366-4.767-2.355-7.428c0-1.479 0.411-2.285 0.895-2.638 0.457-0.336 1.459-0.61 3.513 0.148 0.742 0.274 1.601 0.695 2.584 1.307l0.714 0.444 0.734-0.412c0.886-0.498 1.563-0.321 2.082 0.043 0.228 0.159 0.422 0.358 0.572 0.562zM17.869 27.708l10.371-11.43-2.106-1.911-4.17 4.595 0.010-1.442-2.844-0.020-0.033 4.622-3.531 3.893c-0.267-1.452-0.427-3.012-0.375-4.476 0.091-2.496 1.088-4.547 2.563-5.359 0.612-0.337 1.691-0.469 2.544-0.319l1.266 0.22 0.349-1.236c0.182-0.644 0.664-1.334 1.418-1.948 0.765-0.618 1.655-1.063 2.608-1.303 1.139-0.279 2.111-0.134 2.75 0.307 0.559 0.384 1.121 1.169 1.173 2.779v0.026l0.004 0.228c0.014 3.26-1.221 6.401-3.453 8.777s-5.289 3.807-8.543 3.997z"></path>
</symbol>
<symbol id="icon-leaf" viewBox="0 0 34 32">
    <path d="M25.263 8.421C10.105 11.789 6.568 22.181 3.065 30.888L6.248 32l1.6-3.874c.808.286 1.651.505 2.257.505 18.526 0 23.579-28.632 23.579-28.632C32 3.367 20.21 3.788 11.789 5.473S0 14.315 0 17.684C0 21.052 2.947 24 2.947 24 8.421 8.421 25.263 8.421 25.263 8.421z"/>
</symbol>
    <symbol id="icon-organic-food" viewBox="0 0 32 32">
      <path d="M25.905 17.123c.114-.893.803-1.355 1.69-1.242s1.438.734 1.323 1.627c-.114.893-.803 1.355-1.69 1.242s-1.438-.734-1.323-1.627zm.48.061c-.071.558.332.905.918.98.592.076 1.064-.159 1.135-.717s-.327-.904-.918-.98c-.586-.075-1.064.159-1.135.717zM28.062 20.787a1.932 1.932 0 0 1-.102.238l-.525-.186.004-.011c.28-.504.071-1.061-.507-1.266l-1.384-.49.197-.557 2.71.959-.197.557-.509-.18-.004.011c.289.263.443.569.317.924zM26.615 23.318l-.312.502-2.275-1.413c-.703-.436-.749-1.055-.319-1.748.436-.703 1.045-.861 1.488-.659l-.315.507c-.245-.086-.514-.015-.76.382-.261.421-.204.754.236 1.027l.296.184.006-.01c-.102-.242-.144-.579.097-.966.38-.612 1.09-.807 1.86-.329.774.481.91 1.201.53 1.813-.24.387-.561.499-.814.521l-.006.01.287.178zm-1.506-1.842c-.252.406-.136.816.38 1.137s.935.243 1.188-.163c.273-.44.083-.869-.371-1.151-.449-.279-.923-.262-1.196.178zM24.021 25.083c.143.151.342.18.627-.091.343-.326.368-.552.133-.84l.416-.395c.359.419.401.977-.227 1.574-.461.438-.97.588-1.497.034l-.942-.991c-.14-.147-.246-.193-.398-.018l-.194-.204a.887.887 0 0 1 .206-.281c.228-.217.412-.236.646-.071l.008-.008c-.044-.308.072-.659.395-.965.424-.403.918-.406 1.251-.056.434.457.231.921-.194 1.519-.264.367-.421.594-.231.794zm-.598-1.83c-.355.337-.433.745-.111 1.084l.298.314c.023-.115.144-.323.305-.553.281-.415.339-.664.138-.876-.182-.192-.397-.189-.63.032zM21.959 27.496c-.469.256-.988.187-1.304-.39l-.953-1.743.523-.286.872 1.595c.186.341.448.48.804.285.4-.219.524-.601.319-.976l-.84-1.535.518-.283 1.379 2.523-.518.283-.178-.326-.01.005c-.025.27-.179.611-.613.848zM20.145 28.701c.155-.05.35.005.413.197s-.065.346-.22.397c-.166.054-.354.003-.417-.19s.058-.35.224-.404zm.129-.55-.562.182-.887-2.735.562-.182.888 2.735zM16.736 27.841c.059.287.289.615.791.551.575-.073.758-.596.689-1.132s-.371-.996-.952-.922c-.502.064-.642.434-.624.755l-.586.075c-.04-.664.406-1.215 1.148-1.31.854-.109 1.485.434 1.599 1.327s-.36 1.578-1.208 1.686c-.742.095-1.288-.317-1.444-.956l.586-.075zM11.036 28.715c.36.13.512.136.609-.175l.094-.301-.505-.158.144-.462.505.158.712-2.283.569.178-.712 2.283.392.122-.144.462-.392-.122-.109.349c-.181.58-.492.707-.943.566a2.063 2.063 0 0 1-.364-.155l.144-.462zM10.993 24.692c.788.435.964 1.245.532 2.029s-1.212 1.067-2 .632c-.788-.435-.964-1.245-.532-2.029s1.212-1.067 2-.632zm-.234.424c-.493-.272-.964-.024-1.249.493-.288.522-.244 1.048.249 1.32s.961.029 1.249-.493c.285-.517.244-1.048-.249-1.32z"/>
      <path d="M8.902 23.159c.653.62.618 1.449.002 2.097s-1.442.725-2.095.105c-.653-.62-.618-1.449-.002-2.097s1.442-.725 2.095-.105zm-.333.35c-.408-.388-.926-.267-1.333.161-.411.432-.501.952-.093 1.34s.922.271 1.333-.161c.407-.428.501-.952.093-1.34z"/>
      <path d="m3.389 22.669-.304-.506 3.449-2.072.304.506-.285.171.006.01c.247.029.58.157.809.538.38.632.169 1.395-.642 1.882s-1.583.314-1.963-.317c-.229-.381-.195-.729-.085-.973l-.006-.01-1.283.771zm3.512-1.191c-.249-.415-.745-.465-1.29-.137-.55.33-.734.789-.485 1.204.267.444.814.437 1.296.147s.745-.769.479-1.213zM5.768 16.237c.035.9-.568 1.469-1.462 1.503s-1.539-.487-1.574-1.386.568-1.469 1.462-1.504c.894-.035 1.539.487 1.574 1.386zm-.484.018c-.022-.562-.477-.837-1.067-.815-.596.023-1.023.332-1.002.895s.472.838 1.067.815c.59-.023 1.023-.332 1.002-.895zM3.042 12.923c.018-.1.036-.171.062-.252l.548.098-.002.011c-.194.543.102 1.059.706 1.167l1.446.259-.104.582-2.83-.506.104-.582.532.095.002-.011c-.328-.213-.53-.489-.463-.86zM4.051 10.203l.226-.546 2.474 1.025c.764.316.91.919.598 1.673-.316.764-.891 1.019-1.362.891l.228-.551c.255.045.51-.069.688-.5.189-.457.078-.777-.4-.976l-.322-.133-.004.01c.139.222.236.548.061.969-.276.665-.945.973-1.782.626-.842-.349-1.093-1.037-.817-1.703.174-.421.473-.584.718-.646l.004-.01-.312-.129zm1.784 1.574c.183-.442.002-.828-.56-1.06s-.962-.088-1.145.354c-.198.478.059.871.553 1.076.489.202.954.109 1.152-.369zM6.325 8.036c-.166-.126-.366-.123-.605.19-.286.376-.276.603.003.851l-.348.457c-.422-.356-.552-.901-.027-1.59.385-.506.864-.735 1.473-.272l1.088.828c.161.123.273.152.395-.046l.224.17a.908.908 0 0 1-.159.311c-.191.251-.369.299-.627.173l-.007.009c.092.297.033.662-.236 1.016-.354.466-.841.548-1.226.254-.501-.382-.375-.873-.051-1.531.202-.405.321-.654.102-.821zm.882 1.711c.297-.389.309-.805-.063-1.088l-.345-.262c-.004.117-.09.341-.213.595-.211.454-.229.71.004.887.21.16.422.123.616-.132zM7.935 5.343c.42-.33.943-.347 1.35.171l1.226 1.562-.469.368-1.122-1.43c-.24-.305-.521-.399-.84-.149-.359.281-.418.679-.154 1.015l1.08 1.377-.465.365L6.766 6.36l.465-.365.229.292.009-.007c-.019-.271.076-.632.466-.938zM9.554 3.834c-.145.075-.347.053-.44-.127s.007-.352.152-.427c.155-.08.349-.06.442.119s0 .355-.155.435zm-.037.565.524-.272 1.323 2.553-.524.272-1.323-2.553zM13.06 4.122c-.106-.274-.385-.56-.87-.415-.555.166-.65.712-.495 1.229s.529.922 1.089.754c.485-.145.563-.533.492-.846l.566-.17c.147.649-.202 1.265-.919 1.48-.825.247-1.536-.186-1.794-1.048s.097-1.615.917-1.861c.717-.215 1.323.103 1.58.707l-.566.17zM18.518 2.329c-.377-.07-.527-.051-.572.272l-.044.312.524.073-.067.479-.524-.073-.331 2.368-.591-.082.331-2.368-.407-.057.067-.479.407.057.051-.362c.084-.602.37-.778.838-.712.145.02.271.055.385.093l-.067.479zM19.227 6.287c-.849-.3-1.155-1.071-.856-1.915s1.021-1.25 1.87-.95c.849.3 1.155 1.071.856 1.915s-1.021 1.25-1.87.95zm.161-.457c.53.188.954-.134 1.152-.691.199-.562.07-1.074-.461-1.261s-.953.128-1.152.691c-.197.557-.07 1.074.461 1.261z"/>
      <path d="M21.506 7.43c-.745-.505-.846-1.329-.344-2.069s1.304-.951 2.049-.446c.745.505.846 1.329.344 2.069s-1.304.951-2.049.446zm.271-.401c.466.316.957.112 1.289-.377.335-.494.339-1.021-.127-1.337s-.954-.117-1.289.377c-.332.489-.339 1.021.127 1.337zM27.085 7.066l.381.451-3.072 2.597-.381-.451.253-.214-.007-.009a1.077 1.077 0 0 1-.885-.402c-.476-.563-.39-1.35.332-1.96s1.512-.564 1.988-.001c.287.339.31.689.24.946l.007.009 1.143-.966zm-3.276 1.738c.312.37.81.339 1.296-.071.49-.414.598-.896.286-1.266-.334-.395-.873-.301-1.303.063s-.613.879-.278 1.274z"/>
    </symbol>
    <symbol id="icon-circle-leaf" viewBox="0 0 32 32">
    <path fill="#fdc152" style="fill: var(--color1, #fdc152)" d="M32 16c0 8.837-7.163 16-16 16s-16-7.163-16-16c0-8.837 7.163-16 16-16s16 7.163 16 16z"></path>
    <path fill="#010101" style="fill: var(--color2, #010101)" d="M17.6 14.72c-2.88 0.64-3.552 2.614-4.218 4.269l0.605 0.211 0.304-0.736c0.154 0.054 0.314 0.096 0.429 0.096 3.52 0 4.48-5.44 4.48-5.44-0.32 0.64-2.56 0.72-4.16 1.040s-2.24 1.68-2.24 2.32c0 0.64 0.56 1.2 0.56 1.2 1.040-2.96 4.24-2.96 4.24-2.96z"></path>
    </symbol>
</defs>
</svg>
