<svg aria-hidden="true" style="position: absolute; width: 0; height: 0; overflow: hidden;" version="1.1" xmlns="http://www.w3.org/2000/svg" xmlns:xlink="http://www.w3.org/1999/xlink">
<defs>
<symbol id="icon-cart" viewBox="0 0 30 32">
    <path d="M2.709 1.723c-0.457 0-0.895 0.182-1.218 0.505s-0.505 0.761-0.505 1.218c0 0.457 0.182 0.895 0.505 1.218s0.761 0.505 1.218 0.505h2.102l0.526 2.106c0.005 0.024 0.011 0.048 0.017 0.072l2.34 9.356-1.539 1.537c-2.171 2.171-0.634 5.883 2.436 5.883h14.794c0.457 0 0.895-0.182 1.218-0.505s0.505-0.761 0.505-1.218-0.182-0.895-0.505-1.218c-0.323-0.323-0.761-0.505-1.218-0.505h-14.794l1.723-1.723h11.348c0.32-0 0.633-0.089 0.906-0.258s0.492-0.409 0.635-0.695l5.169-10.338c0.131-0.263 0.193-0.554 0.18-0.848s-0.101-0.578-0.256-0.828c-0.154-0.25-0.37-0.456-0.626-0.599s-0.545-0.218-0.839-0.218h-18.471l-0.534-2.142c-0.093-0.373-0.308-0.703-0.611-0.94s-0.676-0.365-1.060-0.365h-3.446zM25.109 28.431c0 0.686-0.272 1.343-0.757 1.828s-1.142 0.757-1.828 0.757-1.343-0.272-1.828-0.757c-0.485-0.485-0.757-1.142-0.757-1.828s0.272-1.343 0.757-1.827 1.142-0.757 1.828-0.757c0.686 0 1.343 0.272 1.828 0.757s0.757 1.142 0.757 1.827zM8.739 31.015c0.685 0 1.343-0.272 1.828-0.757s0.757-1.142 0.757-1.828c0-0.685-0.272-1.343-0.757-1.827s-1.142-0.757-1.828-0.757c-0.685 0-1.343 0.272-1.828 0.757s-0.757 1.142-0.757 1.827c0 0.686 0.272 1.343 0.757 1.828s1.142 0.757 1.828 0.757z"></path>
</symbol>
<symbol id="icon-logo" viewBox="0 0 34 32">
    <path d="M18.652 2.799c-0.494-0.751-1.158-1.374-1.939-1.82-2.145-1.23-4.908-1.014-7.458 0.414-4.735 2.652-7.835 7.639-7.835 13.541 0 7.879 5.703 14.241 13.151 15.445 0.814 0.131 1.646 0.199 2.493 0.199 2.067 0.007 4.114-0.396 6.024-1.187s3.642-1.954 5.098-3.421 2.605-3.209 3.382-5.124c0.777-1.915 1.165-3.966 1.141-6.032-0.033-2.748-1.135-6.12-2.877-8.815-1.735-2.685-4.403-5.131-7.718-5.1-1.618 0.003-2.724 0.893-3.462 1.903v-0.001zM28.117 8.694c-0.594-0.095-1.198-0.111-1.796-0.047l-1.65-2.773-2.444 1.451 1.269 2.133c-0.531 0.25-1.038 0.547-1.515 0.889-0.008-0.028-0.017-0.055-0.026-0.082-0.38-1.152-1.114-2.098-2.092-3.038l0.006-0.028c0.098-0.459 0.255-1.052 0.489-1.628 0.53-1.303 1.146-1.83 1.764-1.83h0.016c1.836-0.020 3.749 1.389 5.306 3.799 0.242 0.374 0.466 0.759 0.674 1.155l-0.002 0.001zM19.355 12.956c-0.469 0.011-0.951 0.064-1.422 0.166-0.384-0.643-0.898-1.197-1.51-1.628-1.124-0.789-2.662-1.18-4.326-0.559-0.152-0.088-0.306-0.174-0.461-0.257l4.598-4.507-1.991-2.031-5.454 5.346c-1.152-0.334-2.229-0.454-3.196-0.32 1.113-2.234 2.875-4.079 5.056-5.294 1.94-1.087 3.608-1.027 4.652-0.428 0.996 0.57 1.822 1.865 1.614 4.177l-0.064 0.715 0.538 0.476c1.169 1.034 1.655 1.702 1.866 2.341 0.148 0.448 0.196 0.99 0.101 1.802zM15.359 14.386c-1.215 1.017-2.030 2.443-2.503 3.985l-4.23-4.644-2.103 1.917 5.814 6.383c-0.007 1.695 0.21 3.43 0.526 4.999-2.517-0.864-4.7-2.496-6.242-4.665s-2.366-4.767-2.355-7.428c0-1.479 0.411-2.285 0.895-2.638 0.457-0.336 1.459-0.61 3.513 0.148 0.742 0.274 1.601 0.695 2.584 1.307l0.714 0.444 0.734-0.412c0.886-0.498 1.563-0.321 2.082 0.043 0.228 0.159 0.422 0.358 0.572 0.562zM17.869 27.708l10.371-11.43-2.106-1.911-4.17 4.595 0.010-1.442-2.844-0.020-0.033 4.622-3.531 3.893c-0.267-1.452-0.427-3.012-0.375-4.476 0.091-2.496 1.088-4.547 2.563-5.359 0.612-0.337 1.691-0.469 2.544-0.319l1.266 0.22 0.349-1.236c0.182-0.644 0.664-1.334 1.418-1.948 0.765-0.618 1.655-1.063 2.608-1.303 1.139-0.279 2.111-0.134 2.75 0.307 0.559 0.384 1.121 1.169 1.173 2.779v0.026l0.004 0.228c0.014 3.26-1.221 6.401-3.453 8.777s-5.289 3.807-8.543 3.997z"></path>
</symbol>
<symbol id="icon-leaf" viewBox="0 0 34 32">
    <path d="M25.263 8.421C10.105 11.789 6.568 22.181 3.065 30.888L6.248 32l1.6-3.874c.808.286 1.651.505 2.257.505 18.526 0 23.579-28.632 23.579-28.632C32 3.367 20.21 3.788 11.789 5.473S0 14.315 0 17.684C0 21.052 2.947 24 2.947 24 8.421 8.421 25.263 8.421 25.263 8.421z"/>
</symbol>
 <symbol id="icon-organic-food" viewBox="0 0 32 32">
      <path fill="#fdc152" style="fill:var(--color1, #fdc152)" d="M32 16c0 8.837-7.163 16-16 16S0 24.837 0 16 7.163 0 16 0s16 7.163 16 16z"/>
      <path fill="#010101" style="fill:var(--color2, #010101)" d="M25.174 17.182c.104-.813.731-1.233 1.538-1.13s1.308.668 1.204 1.48c-.104.813-.731 1.233-1.538 1.13s-1.308-.668-1.204-1.481zm.437.056c-.065.508.303.823.836.891.538.069.968-.145 1.033-.652s-.297-.823-.836-.891c-.533-.068-.968.145-1.033.652zM27.137 20.516a1.724 1.724 0 0 1-.093.217l-.478-.169.003-.01c.255-.458.065-.966-.461-1.152l-1.26-.446.179-.507 2.466.873-.179.507-.463-.164-.003.01c.263.24.403.518.289.841zM25.819 22.819l-.284.457-2.07-1.286c-.639-.397-.682-.96-.29-1.59.397-.639.951-.784 1.355-.599l-.286.461c-.223-.078-.468-.013-.692.348-.238.383-.185.687.215.935l.27.167.005-.009c-.092-.22-.131-.527.088-.879.346-.557.992-.734 1.692-.299.705.438.828 1.093.482 1.65-.219.352-.511.454-.741.474l-.005.009.261.162zm-1.369-1.676c-.23.37-.124.743.346 1.035s.851.221 1.081-.149c.248-.4.075-.791-.338-1.048-.409-.254-.84-.238-1.089.162zM23.459 24.426c.131.137.311.164.571-.083.312-.296.335-.502.121-.765l.379-.36c.327.381.365.889-.207 1.433-.419.399-.883.535-1.363.031l-.857-.902c-.127-.134-.224-.176-.362-.016l-.176-.186a.8.8 0 0 1 .188-.256c.208-.198.375-.215.588-.065l.007-.007c-.04-.28.066-.6.359-.878.386-.367.835-.37 1.138-.051.395.416.21.838-.176 1.383-.24.334-.383.541-.21.723zm-.544-1.666c-.323.307-.394.678-.101.986l.272.286c.021-.104.131-.294.277-.504.256-.377.309-.604.125-.797-.166-.174-.361-.172-.573.029zM21.582 26.621c-.427.233-.899.171-1.186-.355l-.867-1.586.476-.26.793 1.451c.169.31.408.436.731.26.364-.199.477-.547.29-.888l-.764-1.397.472-.258 1.255 2.296-.472.258-.162-.297-.009.005c-.023.246-.163.556-.558.772zM19.932 27.718c.141-.046.319.004.376.18s-.059.315-.2.361c-.151.049-.322.002-.379-.173s.053-.319.204-.368zm.117-.501-.511.166-.808-2.489.511-.166.808 2.489zM16.83 26.935c.054.261.263.56.72.502.523-.067.689-.542.627-1.03s-.338-.907-.866-.839c-.457.058-.584.395-.568.687l-.533.068c-.036-.604.37-1.105 1.045-1.192.777-.099 1.351.395 1.455 1.208s-.327 1.436-1.099 1.534c-.675.086-1.172-.289-1.314-.87l.533-.068zM11.643 27.731c.328.118.466.124.554-.16l.085-.274-.459-.143.131-.42.459.143.648-2.077.518.162-.648 2.077.357.111-.131.42-.357-.111-.099.318c-.165.528-.447.643-.858.515a1.86 1.86 0 0 1-.331-.141l.131-.42zM11.604 24.07c.717.396.878 1.133.484 1.846s-1.103.971-1.82.575c-.717-.396-.878-1.133-.484-1.846s1.103-.971 1.82-.575zm-.213.385c-.448-.247-.877-.022-1.136.449-.262.475-.222.954.226 1.201s.874.026 1.136-.449c.26-.471.222-.954-.226-1.201z"/>
      <path fill="#010101" style="fill:var(--color2, #010101)" d="M9.701 22.674c.594.564.562 1.318.001 1.909s-1.312.66-1.906.096c-.594-.564-.562-1.318-.001-1.909s1.312-.66 1.906-.096zm-.303.32c-.371-.353-.843-.243-1.213.147-.374.393-.456.866-.085 1.219s.839.247 1.213-.147c.37-.39.456-.866.085-1.219z"/>
      <path fill="#010101" style="fill:var(--color2, #010101)" d="m4.684 22.229-.277-.461 3.138-1.885.277.461-.259.156.005.009a.978.978 0 0 1 .736.49c.345.575.153 1.27-.584 1.713s-1.441.286-1.786-.289c-.208-.347-.178-.664-.078-.885l-.005-.009-1.168.701zm3.196-1.084c-.227-.377-.678-.423-1.174-.125-.5.301-.668.718-.441 1.095.243.404.74.397 1.179.134s.678-.7.436-1.104zM6.849 16.375c.032.819-.517 1.337-1.331 1.368s-1.401-.443-1.432-1.262.517-1.337 1.331-1.368c.813-.031 1.401.443 1.432 1.261zm-.44.017c-.02-.512-.434-.762-.971-.741-.542.021-.931.302-.911.814s.429.762.971.741c.537-.021.931-.302.911-.814zM4.369 13.36c.016-.091.033-.155.057-.229l.499.089-.002.01c-.177.494.093.963.642 1.062l1.315.235-.095.529-2.575-.461.095-.529.484.087.002-.01c-.298-.194-.482-.445-.422-.783zM5.287 10.885l.206-.497 2.252.933c.695.288.828.836.544 1.522-.288.695-.811.928-1.239.811l.208-.501c.232.041.464-.063.626-.455.172-.416.071-.707-.364-.888l-.293-.121-.004.009c.127.202.215.499.056.882-.251.605-.86.885-1.621.57-.766-.317-.995-.944-.744-1.549.159-.383.431-.531.654-.588l.004-.009-.284-.118zm1.623 1.432c.167-.402.002-.753-.509-.965s-.876-.08-1.042.322c-.18.435.054.793.503.979.445.184.868.099 1.048-.336zM7.356 8.912c-.151-.115-.333-.112-.55.173-.261.342-.251.549.003.774l-.316.415c-.384-.324-.502-.82-.024-1.447.351-.46.786-.669 1.34-.247l.99.754c.147.112.249.138.36-.041l.204.155a.817.817 0 0 1-.144.283c-.174.228-.336.272-.571.158l-.006.008c.084.27.03.602-.215.924-.323.424-.766.498-1.116.232-.456-.347-.341-.794-.046-1.393.184-.368.292-.595.092-.747zm.802 1.558c.27-.354.281-.732-.057-.99l-.314-.239c-.004.107-.082.311-.193.541-.192.413-.208.646.003.807.191.146.384.112.561-.12zM8.821 6.462c.383-.3.859-.316 1.228.155l1.116 1.422-.427.335-1.021-1.301c-.218-.278-.474-.364-.764-.136-.326.256-.381.618-.141.924l.983 1.253-.423.332-1.615-2.058.423-.332.209.266.008-.006c-.018-.246.069-.575.424-.853zM10.294 5.089c-.132.068-.315.048-.4-.116s.007-.321.139-.389c.141-.073.318-.055.402.109s0 .323-.141.396zm-.034.514.477-.247 1.204 2.323-.477.247-1.204-2.323zM13.485 5.351c-.096-.249-.351-.51-.792-.377-.505.151-.592.648-.451 1.119s.481.839.991.686c.441-.132.512-.485.448-.77l.515-.154c.134.591-.184 1.151-.837 1.346-.75.225-1.398-.169-1.633-.954s.089-1.47.834-1.693c.652-.195 1.204.094 1.438.643l-.515.154zM18.451 3.719c-.343-.063-.48-.046-.521.248l-.04.284.477.067-.061.436-.477-.067-.301 2.155-.538-.075.301-2.155-.37-.052.061-.436.37.052.046-.33c.076-.548.337-.708.763-.648.132.018.246.05.35.085l-.061.436zM19.096 7.321c-.772-.273-1.051-.975-.779-1.742s.929-1.137 1.702-.864c.772.273 1.051.975.779 1.742s-.929 1.137-1.702.864zm.147-.415c.483.171.869-.122 1.048-.628.181-.512.063-.977-.419-1.148s-.867.117-1.048.628c-.179.507-.063.977.419 1.148z"/>
      <path fill="#010101" style="fill:var(--color2, #010101)" d="M21.17 8.361c-.678-.46-.77-1.209-.313-1.883s1.187-.865 1.865-.405c.678.46.77 1.209.313 1.883s-1.187.865-1.865.405zm.247-.364c.424.287.871.102 1.173-.343.305-.449.308-.929-.115-1.216s-.868-.106-1.173.343c-.302.445-.308.929.115 1.216zM26.247 8.03l.347.411-2.796 2.363-.347-.411.231-.195-.007-.008a.979.979 0 0 1-.805-.365c-.433-.512-.355-1.229.302-1.784s1.376-.513 1.809-.001c.261.309.282.627.218.861l.007.008 1.04-.879zm-2.98 1.582c.284.336.737.309 1.179-.065.446-.377.544-.815.26-1.152-.304-.36-.794-.274-1.186.057s-.558.8-.253 1.16zM17.6 14.72c-2.88.64-3.552 2.614-4.218 4.269l.605.211.304-.736c.154.054.314.096.429.096 3.52 0 4.48-5.44 4.48-5.44-.32.64-2.56.72-4.16 1.04s-2.24 1.68-2.24 2.32c0 .64.56 1.2.56 1.2 1.04-2.96 4.24-2.96 4.24-2.96z"/>
</defs>
</svg>
