<svg aria-hidden="true" style="position: absolute; width: 0; height: 0; overflow: hidden;" version="1.1" xmlns="http://www.w3.org/2000/svg" xmlns:xlink="http://www.w3.org/1999/xlink">
<defs>
<symbol id="icon-cart" viewBox="0 0 30 32">
<path d="M2.709 1.723c-0.457 0-0.895 0.182-1.218 0.505s-0.505 0.761-0.505 1.218c0 0.457 0.182 0.895 0.505 1.218s0.761 0.505 1.218 0.505h2.102l0.526 2.106c0.005 0.024 0.011 0.048 0.017 0.072l2.34 9.356-1.539 1.537c-2.171 2.171-0.634 5.883 2.436 5.883h14.794c0.457 0 0.895-0.182 1.218-0.505s0.505-0.761 0.505-1.218-0.182-0.895-0.505-1.218c-0.323-0.323-0.761-0.505-1.218-0.505h-14.794l1.723-1.723h11.348c0.32-0 0.633-0.089 0.906-0.258s0.492-0.409 0.635-0.695l5.169-10.338c0.131-0.263 0.193-0.554 0.18-0.848s-0.101-0.578-0.256-0.828c-0.154-0.25-0.37-0.456-0.626-0.599s-0.545-0.218-0.839-0.218h-18.471l-0.534-2.142c-0.093-0.373-0.308-0.703-0.611-0.94s-0.676-0.365-1.060-0.365h-3.446zM25.109 28.431c0 0.686-0.272 1.343-0.757 1.828s-1.142 0.757-1.828 0.757-1.343-0.272-1.828-0.757c-0.485-0.485-0.757-1.142-0.757-1.828s0.272-1.343 0.757-1.827 1.142-0.757 1.828-0.757c0.686 0 1.343 0.272 1.828 0.757s0.757 1.142 0.757 1.827zM8.739 31.015c0.685 0 1.343-0.272 1.828-0.757s0.757-1.142 0.757-1.828c0-0.685-0.272-1.343-0.757-1.827s-1.142-0.757-1.828-0.757c-0.685 0-1.343 0.272-1.828 0.757s-0.757 1.142-0.757 1.827c0 0.686 0.272 1.343 0.757 1.828s1.142 0.757 1.828 0.757z"></path>
</symbol>
<symbol id="icon-logo" viewBox="0 0 34 32">
<path d="M18.652 2.799c-0.494-0.751-1.158-1.374-1.939-1.82-2.145-1.23-4.908-1.014-7.458 0.414-4.735 2.652-7.835 7.639-7.835 13.541 0 7.879 5.703 14.241 13.151 15.445 0.814 0.131 1.646 0.199 2.493 0.199 2.067 0.007 4.114-0.396 6.024-1.187s3.642-1.954 5.098-3.421 2.605-3.209 3.382-5.124c0.777-1.915 1.165-3.966 1.141-6.032-0.033-2.748-1.135-6.12-2.877-8.815-1.735-2.685-4.403-5.131-7.718-5.1-1.618 0.003-2.724 0.893-3.462 1.903v-0.001zM28.117 8.694c-0.594-0.095-1.198-0.111-1.796-0.047l-1.65-2.773-2.444 1.451 1.269 2.133c-0.531 0.25-1.038 0.547-1.515 0.889-0.008-0.028-0.017-0.055-0.026-0.082-0.38-1.152-1.114-2.098-2.092-3.038l0.006-0.028c0.098-0.459 0.255-1.052 0.489-1.628 0.53-1.303 1.146-1.83 1.764-1.83h0.016c1.836-0.020 3.749 1.389 5.306 3.799 0.242 0.374 0.466 0.759 0.674 1.155l-0.002 0.001zM19.355 12.956c-0.469 0.011-0.951 0.064-1.422 0.166-0.384-0.643-0.898-1.197-1.51-1.628-1.124-0.789-2.662-1.18-4.326-0.559-0.152-0.088-0.306-0.174-0.461-0.257l4.598-4.507-1.991-2.031-5.454 5.346c-1.152-0.334-2.229-0.454-3.196-0.32 1.113-2.234 2.875-4.079 5.056-5.294 1.94-1.087 3.608-1.027 4.652-0.428 0.996 0.57 1.822 1.865 1.614 4.177l-0.064 0.715 0.538 0.476c1.169 1.034 1.655 1.702 1.866 2.341 0.148 0.448 0.196 0.99 0.101 1.802zM15.359 14.386c-1.215 1.017-2.030 2.443-2.503 3.985l-4.23-4.644-2.103 1.917 5.814 6.383c-0.007 1.695 0.21 3.43 0.526 4.999-2.517-0.864-4.7-2.496-6.242-4.665s-2.366-4.767-2.355-7.428c0-1.479 0.411-2.285 0.895-2.638 0.457-0.336 1.459-0.61 3.513 0.148 0.742 0.274 1.601 0.695 2.584 1.307l0.714 0.444 0.734-0.412c0.886-0.498 1.563-0.321 2.082 0.043 0.228 0.159 0.422 0.358 0.572 0.562zM17.869 27.708l10.371-11.43-2.106-1.911-4.17 4.595 0.010-1.442-2.844-0.020-0.033 4.622-3.531 3.893c-0.267-1.452-0.427-3.012-0.375-4.476 0.091-2.496 1.088-4.547 2.563-5.359 0.612-0.337 1.691-0.469 2.544-0.319l1.266 0.22 0.349-1.236c0.182-0.644 0.664-1.334 1.418-1.948 0.765-0.618 1.655-1.063 2.608-1.303 1.139-0.279 2.111-0.134 2.75 0.307 0.559 0.384 1.121 1.169 1.173 2.779v0.026l0.004 0.228c0.014 3.26-1.221 6.401-3.453 8.777s-5.289 3.807-8.543 3.997z"></path>
</symbol>
</defs>
</svg>
