<svg xmlns="http://www.w3.org/2000/svg" aria-hidden="true" style="position:absolute;width:0;height:0;overflow:hidden">
  <defs>
  <symbol id="icon-search" viewBox="0 0 32 32">
      <path d="M20.667 18.667h-1.053l-.373-.36a8.625 8.625 0 0 0 2.093-5.64 8.668 8.668 0 0 0-5.35-8.007A8.66 8.66 0 0 0 6.54 6.539a8.67 8.67 0 0 0-1.879 9.444 8.671 8.671 0 0 0 8.007 5.35 8.63 8.63 0 0 0 5.64-2.093l.36.373v1.053l6.667 6.653 1.987-1.987-6.653-6.667zm-8 0c-3.32 0-6-2.68-6-6s2.68-6 6-6 6 2.68 6 6-2.68 6-6 6z"/>
    </symbol>
   <symbol id="icon-chevron-down" viewBox="0 0 20 20"  fill="none">
     <path stroke="#010101" stroke-linecap="round" stroke-linejoin="round" stroke-width="2" d="m5 7.5 5 5 5-5"/>
    </symbol>
    <symbol id="icon-scroll-bar" viewBox="0 0 2 32">
      <path d="M.758 0c.419 0 .758.339.758.758v30.484a.758.758 0 1 1-1.516 0V.758C0 .339.339 0 .758 0z"/>
    </symbol>
    <symbol id="icon-plus" viewBox="0 0 32 32">
      <path stroke-linejoin="round" stroke-linecap="round" stroke-width="2.667" d="M16 6.667v18.667M6.667 16h18.667"/>
    </symbol>
    <symbol id="icon-minus" viewBox="0 0 32 32">
      <path stroke-linejoin="round" stroke-linecap="round" stroke-width="2.667" d="M6.667 16h18.667"/>
    </symbol>
    <symbol id="icon-x-close" viewBox="0 0 32 32">
      <path d="M25 9.093 22.907 7 16 13.907 9.093 7 7 9.093 13.907 16 7 22.907 9.093 25 16 18.093 22.907 25 25 22.907 18.093 16 25 9.093z"/>
    </symbol>
    <symbol id="icon-logo-food-boutique" viewBox="0 0 227 32">
      <path d="M0 22.964c1.711-.209 2.653-.977 2.653-2.339V6.417c0-1.361-.943-2.164-2.653-2.339V2.682h17.734c.314 0 .454.105.489.349.105 1.047.175 2.095.733 4.643h-.873c-1.222-2.129-2.269-3.247-4.329-3.247h-2.967c-1.571 0-2.234.873-2.234 2.269v3.665c0 1.396.663 2.164 2.234 2.164h1.396c2.828 0 3.351-.663 3.631-2.234h.768v6.214h-.768c-.279-1.466-.803-2.199-3.631-2.199h-1.396c-1.571 0-2.234.768-2.234 2.164v4.154c0 1.361.943 2.129 3.002 2.339v1.396H0v-1.396zM27.766 24.57c-4.294 0-8.657-2.583-8.657-8.239 0-5.62 4.364-8.029 8.553-8.029 4.329 0 8.657 2.583 8.657 8.239 0 5.62-4.329 8.029-8.553 8.029zm-3.072-9.774c0 4.329 1.431 8.169 3.665 8.169 1.361 0 2.374-1.361 2.374-4.957 0-4.294-1.361-8.134-3.665-8.134-1.396 0-2.374 1.396-2.374 4.922zM46.534 24.57c-4.294 0-8.657-2.583-8.657-8.239 0-5.62 4.364-8.029 8.553-8.029 4.329 0 8.657 2.583 8.657 8.239 0 5.62-4.329 8.029-8.553 8.029zm-3.072-9.774c0 4.329 1.431 8.169 3.665 8.169 1.361 0 2.374-1.361 2.374-4.957 0-4.294-1.361-8.134-3.665-8.134-1.396 0-2.374 1.396-2.374 4.922zM63.312 24.57c-3.281 0-6.668-2.688-6.668-7.855 0-5.551 3.805-8.413 7.505-8.413 3.84 0 4.852 3.002 4.852-.524V5.683c0-1.641-.908-1.92-2.199-1.815V2.507l5.69-.943c1.187-.175 1.745.349 1.745 1.396v17.839c0 1.152.454 1.92 1.466 1.501v.768c-.489 1.187-1.745 1.501-2.828 1.501-1.187 0-2.688-.384-3.107-1.431-.279-.663-.593-1.012-1.117-1.012-.698 0-2.095 2.444-5.341 2.444zm-1.048-9.67c0 3.456 1.536 6.842 3.77 6.842 1.361 0 2.967-.977 2.967-3.91v-1.641c0-4.538-2.129-6.319-3.875-6.319-1.78 0-2.863 2.199-2.863 5.027zM83.032 22.964c1.711-.209 2.653-.977 2.653-2.339V6.452c0-1.396-.943-2.199-2.653-2.374V2.682h10.787c6.842 0 10.228 1.641 10.228 5.167 0 1.99-1.152 3.945-5.132 4.573 4.468.628 6.388 2.723 6.388 5.69 0 4.049-3.596 6.249-8.483 6.249-2.793 0-8.727-.873-13.789 0v-1.396zm8.553-1.815c0 .908.559 1.327 1.571 1.327h1.222c2.653 0 4.643-1.012 4.643-4.399 0-3.281-2.025-4.713-5.865-4.713-.908 0-1.571.698-1.571 2.095v5.69zm0-11.555c0 1.396.663 2.095 2.234 2.095h.908c2.409 0 3.037-1.885 3.037-3.491 0-2.444-1.327-3.805-3.596-3.805h-.349c-1.571 0-2.234.733-2.234 2.129v3.072zM115.537 24.57c-4.294 0-8.657-2.583-8.657-8.239 0-5.62 4.364-8.029 8.553-8.029 4.329 0 8.657 2.583 8.657 8.239 0 5.62-4.329 8.029-8.553 8.029zm-3.072-9.774c0 4.329 1.431 8.169 3.665 8.169 1.361 0 2.374-1.361 2.374-4.957 0-4.294-1.361-8.134-3.665-8.134-1.396 0-2.374 1.396-2.374 4.922zM131.677 24.57c-2.444 0-5.097-1.012-5.097-6.493v-5.551c0-1.606-.908-1.885-2.199-1.85V9.315l5.69-.943c1.187-.175 1.745.349 1.745 1.396v7.471c0 2.444 1.012 4.189 2.897 4.189 1.92 0 2.897-1.745 2.897-4.189v-4.713c0-1.606-.908-1.885-2.199-1.85V9.315l5.655-.943c1.222-.175 1.78.349 1.78 1.396v11.031c0 1.152.454 1.92 1.466 1.501v.768c-.489 1.187-1.745 1.501-2.932 1.501-2.513 0-3.212-1.571-3.386-2.339-.105-.489-.384-.733-.628-.733s-.419.209-.593.454c-.977 1.327-2.339 2.618-5.097 2.618zM152.495 24.535c-3.212 0-5.167-1.78-5.167-5.167v-7.645c0-1.222-.279-1.466-1.082-1.466h-1.571V9.14c2.897-.663 4.294-1.99 5.481-3.91.279-.454.524-.593.977-.593h.628c.524 0 .838.314.838.838l-.035 2.164c0 .768.384.977 2.164.977h2.269v1.85l-2.269-.14c-1.78-.105-2.164.209-2.164 1.466v7.401c0 1.92.209 3.212 1.92 3.212.454 0 1.152-.07 1.815-.559.454.559.628 1.047.175 1.466-.803.698-2.234 1.222-3.98 1.222zM158.406 22.999c1.606-.105 2.199-.628 2.199-2.513v-7.994c0-1.641-.908-1.92-2.164-1.815V9.316l5.655-.943c1.187-.175 1.745.349 1.745 1.396v10.717c0 1.885.593 2.409 2.164 2.513v1.361h-9.6v-1.361zm1.361-19.025c0-1.676 1.396-2.967 3.037-2.967 1.606 0 2.967 1.292 2.967 2.967s-1.361 2.967-2.967 2.967c-1.641 0-3.037-1.292-3.037-2.967zM178.431 29.667c1.99-.14 2.583-.663 2.583-2.409v-3.735c0-.628-.314-.838-.628-.838a.692.692 0 0 0-.489.209c-.698.698-2.199 1.676-4.399 1.676-3.596 0-6.912-2.653-6.912-7.785 0-5.585 3.875-8.483 7.889-8.483 3.491 0 4.957 2.129 6.249 2.129 1.222 0 1.711-2.095 2.688-2.095.628 0 .838.349.838.838v18.083c0 1.745.593 2.269 2.164 2.409v1.327h-9.984v-1.327zm-4.224-14.802c0 3.456 1.466 6.877 3.91 6.877 1.327 0 2.863-.977 2.897-4.887-.035-5.236-2.199-6.982-3.945-6.982-1.885 0-2.863 2.199-2.863 4.992zM195.191 24.57c-2.444 0-5.097-1.012-5.097-6.493v-5.551c0-1.606-.908-1.885-2.199-1.85V9.315l5.69-.943c1.187-.175 1.745.349 1.745 1.396v7.471c0 2.444 1.012 4.189 2.897 4.189 1.92 0 2.897-1.745 2.897-4.189v-4.713c0-1.606-.908-1.885-2.199-1.85V9.315l5.655-.943c1.222-.175 1.78.349 1.78 1.396v11.031c0 1.152.454 1.92 1.466 1.501v.768c-.489 1.187-1.745 1.501-2.932 1.501-2.513 0-3.212-1.571-3.386-2.339-.105-.489-.384-.733-.628-.733s-.419.209-.593.454c-.977 1.327-2.339 2.618-5.097 2.618zM217.917 24.57c-4.364 0-8.692-2.513-8.692-7.994 0-5.725 4.678-8.273 9.007-8.273 3.7 0 6.703 1.85 6.703 4.922 0 3.142-3.037 3.316-6.109 3.561l-2.723.209c-.593.035-.908.314-.908 1.117 0 2.583 2.793 3.735 5.097 3.735 1.222 0 2.897-.349 4.154-1.78l1.047.943c-.663 1.361-3.491 3.561-7.575 3.561zm-2.967-10.438c0 1.012.244 1.536 1.152 1.501l1.257-.14c2.409-.244 2.897-.873 2.897-2.234 0-1.676-.698-3.351-2.513-3.351-2.269 0-2.793 2.548-2.793 4.224z"/>
    </symbol>
    <symbol id="icon-arrow-down" viewBox="0 0 32 32">
      <path stroke-linejoin="round" stroke-linecap="round" stroke-width="3.2" d="m8 12 8 8 8-8"/>
    </symbol>
    <symbol id="icon-arrow-left" viewBox="0 0 32 32">
      <path stroke-linejoin="round" stroke-linecap="round" stroke-miterlimit="4" stroke-width="2" d="M18.667 21.333l-5.333-5.333 5.333-5.333"/>
    </symbol>
    <symbol id="icon-arrow-right" viewBox="0 0 32 32">
      <path stroke-linejoin="round" stroke-linecap="round" stroke-width="2" d="M13.333 10.667 18.666 16l-5.333 5.333"/>
    </symbol>
    <symbol id="icon-check" viewBox="0 0 32 32">
      <path stroke-linejoin="round" stroke-linecap="round" stroke-width="3.556" d="M26.667 8 12 22.667 5.333 16"/>
    </symbol>
    <symbol id="icon-shopping-cart" viewBox="0 0 32 32">
      <path d="M4.8 1.6a1.6 1.6 0 0 0 0 3.2h1.952l.488 1.955.016.067 2.173 8.688L8 16.937c-2.016 2.016-.589 5.462 2.262 5.462h13.737a1.6 1.6 0 0 0 0-3.2H10.261l1.6-1.6h10.537a1.602 1.602 0 0 0 1.431-.885l4.8-9.6c.122-.244.18-.515.167-.787s-.094-.537-.237-.769a1.597 1.597 0 0 0-1.36-.759H10.047L9.551 2.81a1.601 1.601 0 0 0-1.552-1.212h-3.2zm20.8 24.8a2.4 2.4 0 1 1-4.799 0 2.4 2.4 0 0 1 4.799 0zm-15.2 2.4a2.401 2.401 0 1 0-.001-4.802A2.401 2.401 0 0 0 10.4 28.8z"/>
    </symbol>
    <symbol id="icon-logo-icon-white" viewBox="0 0 32 32">
      <path fill="#e8e8e2" style="fill:var(--color1, #e8e8e2)" d="M32 16c0 8.837-7.163 16-16 16S0 24.837 0 16 7.163 0 16 0s16 7.163 16 16z"/>
      <path fill="#6d8434" style="fill:var(--color2, #6d8434)" d="M16.93 8.89a3.363 3.363 0 0 0-1.136-1.067c-1.257-.721-2.876-.594-4.37.243C8.65 9.62 6.833 12.542 6.833 16c0 4.617 3.342 8.344 7.706 9.05.477.077.964.117 1.461.117a9.128 9.128 0 0 0 6.516-2.701 9.142 9.142 0 0 0 2.651-6.537c-.019-1.61-.665-3.586-1.686-5.165-1.017-1.573-2.58-3.007-4.523-2.988-.948.002-1.596.523-2.028 1.115V8.89zm5.546 3.454a3.944 3.944 0 0 0-1.052-.027l-.967-1.625-1.432.85.743 1.25a5.631 5.631 0 0 0-.887.521l-.015-.048c-.223-.675-.652-1.229-1.226-1.78l.003-.017c.058-.269.149-.617.287-.954.311-.763.672-1.073 1.033-1.073h.009c1.076-.012 2.197.814 3.109 2.226a8.6 8.6 0 0 1 .395.677l-.001.001zm-5.134 2.498a4.382 4.382 0 0 0-.833.098 3.127 3.127 0 0 0-.885-.954 2.683 2.683 0 0 0-2.535-.328 11.72 11.72 0 0 0-.27-.151l2.694-2.641-1.167-1.19-3.196 3.133c-.675-.196-1.306-.266-1.872-.188a7.257 7.257 0 0 1 2.962-3.102c1.137-.637 2.114-.602 2.726-.251.583.334 1.068 1.093.946 2.448l-.037.419.315.279c.685.606.97.998 1.093 1.372.087.262.115.58.059 1.056zM15 15.679c-.712.596-1.189 1.432-1.467 2.335l-2.478-2.721-1.232 1.123 3.407 3.74c-.004.993.123 2.01.308 2.929A7.46 7.46 0 0 1 8.5 15.999c0-.867.241-1.339.524-1.546.268-.197.855-.357 2.058.087.435.161.938.408 1.514.766l.418.26.43-.242c.519-.292.916-.188 1.22.025.133.093.248.21.335.329zm1.471 7.806 6.077-6.697-1.234-1.12-2.443 2.692.006-.845-1.667-.012-.019 2.708-2.069 2.281c-.157-.851-.25-1.765-.22-2.622.053-1.462.637-2.664 1.502-3.14.358-.198.991-.275 1.491-.187l.742.129.204-.724c.107-.377.389-.782.831-1.142a3.97 3.97 0 0 1 1.528-.763c.668-.163 1.237-.078 1.612.18.328.225.657.685.688 1.628v.015l.003.133a7.468 7.468 0 0 1-7.029 7.485z"/>
    </symbol>
    <symbol id="icon-logo-icon-green" viewBox="0 0 32 32">
      <path fill="#6d8434" style="fill:var(--color2, #6d8434)" d="M32 16c0 8.837-7.163 16-16 16S0 24.837 0 16 7.163 0 16 0s16 7.163 16 16z"/>
      <path fill="#e8e8e2" style="fill:var(--color1, #e8e8e2)" d="M16.93 8.89a3.363 3.363 0 0 0-1.136-1.067c-1.257-.721-2.876-.594-4.37.243C8.65 9.62 6.833 12.542 6.833 16c0 4.617 3.342 8.344 7.706 9.05.477.077.964.117 1.461.117a9.128 9.128 0 0 0 6.516-2.701 9.142 9.142 0 0 0 2.651-6.537c-.019-1.61-.665-3.586-1.686-5.165-1.017-1.573-2.58-3.007-4.523-2.988-.948.002-1.596.523-2.028 1.115V8.89zm5.546 3.454a3.944 3.944 0 0 0-1.052-.027l-.967-1.625-1.432.85.743 1.25a5.631 5.631 0 0 0-.887.521l-.015-.048c-.223-.675-.652-1.229-1.226-1.78l.003-.017c.058-.269.149-.617.287-.954.311-.763.672-1.073 1.033-1.073h.009c1.076-.012 2.197.814 3.109 2.226a8.6 8.6 0 0 1 .395.677l-.001.001zm-5.134 2.498a4.382 4.382 0 0 0-.833.098 3.127 3.127 0 0 0-.885-.954 2.683 2.683 0 0 0-2.535-.328 11.72 11.72 0 0 0-.27-.151l2.694-2.641-1.167-1.19-3.196 3.133c-.675-.196-1.306-.266-1.872-.188a7.257 7.257 0 0 1 2.962-3.102c1.137-.637 2.114-.602 2.726-.251.583.334 1.068 1.093.946 2.448l-.037.419.315.279c.685.606.97.998 1.093 1.372.087.262.115.58.059 1.056zM15 15.679c-.712.596-1.189 1.432-1.467 2.335l-2.478-2.721-1.232 1.123 3.407 3.74c-.004.993.123 2.01.308 2.929A7.46 7.46 0 0 1 8.5 15.999c0-.867.241-1.339.524-1.546.268-.197.855-.357 2.058.087.435.161.938.408 1.514.766l.418.26.43-.242c.519-.292.916-.188 1.22.025.133.093.248.21.335.329zm1.471 7.806 6.077-6.697-1.234-1.12-2.443 2.692.006-.845-1.667-.012-.019 2.708-2.069 2.281c-.157-.851-.25-1.765-.22-2.622.053-1.462.637-2.664 1.502-3.14.358-.198.991-.275 1.491-.187l.742.129.204-.724c.107-.377.389-.782.831-1.142a3.97 3.97 0 0 1 1.528-.763c.668-.163 1.237-.078 1.612.18.328.225.657.685.688 1.628v.015l.003.133a7.468 7.468 0 0 1-7.029 7.485z"/>
    </symbol>
    <symbol id="icon-discount" viewBox="0 0 32 32">
      <path fill="#6d8434" style="fill:var(--color2, #6d8434)" d="M32 16c0 8.837-7.163 16-16 16S0 24.837 0 16 7.163 0 16 0s16 7.163 16 16z"/>
      <path fill="#fafafa" style="fill:var(--color3, #fafafa)" d="m26.947 20.863-.233.63-4.294-1.582.233-.63.354.131.004-.012a1.224 1.224 0 0 1-.099-1.1c.29-.786 1.118-1.143 2.127-.771s1.406 1.18 1.116 1.966c-.175.474-.508.693-.802.768l-.004.012 1.597.589zm-3.557-2.266c-.191.516.118.992.797 1.242.685.252 1.223.089 1.413-.427.204-.552-.192-1.032-.792-1.254s-1.214-.113-1.418.439zM25.093 22.529c.11-.15.327-.229.513-.093s.171.363.061.512c-.117.16-.325.238-.511.102s-.18-.361-.062-.521zm-.248-.593-.397.542-2.64-1.93.397-.542 2.64 1.93zM21.828 23.303c-.554.274-1.144.585-1.641-.017-.4-.483-.233-1.126.38-1.63.815-.671 1.48-.58 1.945-.068l-.504.415c-.249-.251-.559-.385-1.093.054-.361.297-.367.601-.237.759.261.316.583.092 1.027-.124.478-.236 1.086-.604 1.559-.032.343.414.25 1.046-.382 1.567-.687.565-1.319.464-1.716.053l.504-.415c.198.169.464.29.869-.044.311-.256.381-.513.235-.691-.212-.257-.51-.044-.945.173zM18.35 25.162c.132.307.462.62 1.007.435.624-.212.709-.836.51-1.417s-.641-1.026-1.271-.812c-.545.185-.617.629-.524.982l-.636.216c-.196-.731.176-1.445.982-1.719.927-.315 1.755.148 2.085 1.117s-.042 1.839-.963 2.152c-.806.274-1.509-.062-1.828-.738l.636-.216zM15.606 23.245c1.022.062 1.599.809 1.537 1.825s-.724 1.687-1.746 1.624c-1.022-.062-1.599-.809-1.537-1.825s.724-1.687 1.746-1.624zm-.033.55c-.639-.039-1.002.445-1.042 1.116-.041.677.261 1.196.9 1.235s1.001-.439 1.042-1.116c.041-.671-.261-1.196-.9-1.235zM10.77 25.275l-.605-.293 1.431-2.941.605.293-.185.38.012.006c.267-.155.685-.237 1.191.009.547.265.825.791.497 1.465l-.988 2.032-.61-.296.904-1.859c.193-.397.149-.731-.265-.932-.466-.226-.903-.09-1.116.348l-.871 1.79zM7.833 22.957c-.406-.453-.464-1.045.095-1.543l1.685-1.505.453.505-1.542 1.377c-.329.294-.416.62-.108.963.346.386.802.425 1.165.101l1.485-1.326.448.5-2.44 2.178-.448-.5.315-.281-.009-.01c-.306.042-.724-.04-1.1-.46zM6.447 19.376l.253.56 1.617-.728c.338-.152.306-.334.103-.72l.502-.226c.085.109.163.236.237.399.222.49.121.858-.509 1.142l-1.669.751.195.432-.502.226-.195-.432-.94.423-.28-.618.94-.423-.253-.56.502-.226zM4.494 12.648l.146-.656 4.467.994-.146.656-.369-.082-.003.012c.181.217.355.584.245 1.077-.182.818-.954 1.283-2.004 1.049s-1.552-.981-1.37-1.8c.11-.493.411-.754.692-.869l.003-.012-1.662-.37zm3.828 1.769c.12-.537-.25-.967-.956-1.124-.712-.158-1.223.075-1.343.613-.128.575.329.998.953 1.136s1.218-.05 1.346-.625zM6.103 10.748c-.089.163-.293.271-.495.161s-.218-.336-.129-.5c.095-.174.29-.279.493-.17s.226.334.132.508zm.324.555.321-.59 2.875 1.559-.321.59-2.875-1.559zM9.241 9.534c.514-.344 1.057-.73 1.629-.198.459.427.379 1.086-.163 1.666-.72.772-1.391.769-1.919.322l.445-.477c.28.216.605.309 1.076-.197.319-.342.285-.644.135-.783-.3-.279-.59-.015-1.002.257-.443.296-.998.741-1.542.236-.394-.366-.385-1.004.174-1.603.607-.65 1.247-.633 1.694-.278l-.445.477c-.218-.142-.498-.227-.856.157-.275.295-.311.559-.142.715.244.227.511-.023.914-.295z"/>
      <path fill="#fafafa" style="fill:var(--color3, #fafafa)" d="M12.396 7.25c-.172-.286-.542-.552-1.057-.295-.59.295-.589.924-.314 1.473s.774.93 1.37.632c.515-.257.526-.706.386-1.044l.601-.3c.293.698.022 1.456-.74 1.836-.876.438-1.759.091-2.218-.824s-.208-1.828.662-2.262c.762-.38 1.504-.143 1.911.483l-.601.3zM15.372 8.766c-1.021.074-1.693-.589-1.767-1.604s.492-1.768 1.513-1.843c1.021-.074 1.693.589 1.768 1.604s-.492 1.768-1.513 1.843zm-.041-.549c.638-.046.933-.575.884-1.245-.05-.677-.418-1.15-1.057-1.104s-.934.568-.884 1.245c.049.67.418 1.15 1.057 1.104zM19.919 6.105l.638.21-1.026 3.105-.638-.21.133-.401-.012-.004c-.244.189-.647.326-1.182.149-.577-.191-.923-.675-.688-1.386l.709-2.145.644.213-.649 1.963c-.139.419-.051.745.387.889.492.162.907-.031 1.059-.493l.625-1.89zM23.143 8.004c.462.396.597.975.108 1.543l-1.473 1.713-.515-.441 1.348-1.567c.288-.335.331-.669-.019-.969-.394-.337-.851-.316-1.168.053l-1.298 1.509-.51-.437 2.132-2.48.51.437-.275.32.01.008c.298-.082.723-.055 1.15.311zM24.984 11.342l-.326-.521-1.504.939c-.315.196-.258.372-.005.727l-.467.291a1.917 1.917 0 0 1-.288-.363c-.285-.456-.236-.834.351-1.2l1.553-.969-.252-.401.467-.291.252.401.874-.546.36.575-.874.546.326.521-.467.291zM17.556 14.756c-2.8.622-3.453 2.542-4.1 4.15l.588.205.296-.716c.149.053.305.093.417.093 3.422 0 4.356-5.289 4.356-5.289-.311.622-2.489.7-4.044 1.011s-2.178 1.633-2.178 2.256.544 1.167.544 1.167c1.011-2.878 4.122-2.878 4.122-2.878z"/>
    </symbol>
    
    <symbol id="icon-logo-header" viewBox="0 0 196 32">
      <path fill="#6d8434" style="fill:var(--color2, #6d8434)" d="M32 16c0 8.837-7.163 16-16 16S0 24.837 0 16 7.163 0 16 0s16 7.163 16 16z"/>
      <path fill="#e8e8e2" style="fill:var(--color1, #e8e8e2)" d="M16.93 8.89a3.363 3.363 0 0 0-1.136-1.067c-1.257-.721-2.876-.594-4.37.243C8.65 9.62 6.833 12.542 6.833 16c0 4.617 3.342 8.344 7.706 9.05.477.077.964.117 1.461.117a9.128 9.128 0 0 0 6.516-2.701 9.142 9.142 0 0 0 2.651-6.537c-.019-1.61-.665-3.586-1.686-5.165-1.017-1.573-2.58-3.007-4.523-2.988-.948.002-1.596.523-2.028 1.115V8.89zm5.546 3.454a3.944 3.944 0 0 0-1.052-.027l-.967-1.625-1.432.85.743 1.25a5.631 5.631 0 0 0-.887.521l-.015-.048c-.223-.675-.652-1.229-1.226-1.78l.003-.017c.058-.269.149-.617.287-.954.311-.763.672-1.073 1.033-1.073h.009c1.076-.012 2.197.814 3.109 2.226a8.6 8.6 0 0 1 .395.677l-.001.001zm-5.134 2.498a4.382 4.382 0 0 0-.833.098 3.127 3.127 0 0 0-.885-.954 2.683 2.683 0 0 0-2.535-.328 11.72 11.72 0 0 0-.27-.151l2.694-2.641-1.167-1.19-3.196 3.133c-.675-.196-1.306-.266-1.872-.188a7.257 7.257 0 0 1 2.962-3.102c1.137-.637 2.114-.602 2.726-.251.583.334 1.068 1.093.946 2.448l-.037.419.315.279c.685.606.97.998 1.093 1.372.087.262.115.58.059 1.056zM15 15.679c-.712.596-1.189 1.432-1.467 2.335l-2.478-2.721-1.232 1.123 3.407 3.74c-.004.993.123 2.01.308 2.929A7.46 7.46 0 0 1 8.5 15.999c0-.867.241-1.339.524-1.546.268-.197.855-.357 2.058.087.435.161.938.408 1.514.766l.418.26.43-.242c.519-.292.916-.188 1.22.025.133.093.248.21.335.329zm1.471 7.806 6.077-6.697-1.234-1.12-2.443 2.692.006-.845-1.667-.012-.019 2.708-2.069 2.281c-.157-.851-.25-1.765-.22-2.622.053-1.462.637-2.664 1.502-3.14.358-.198.991-.275 1.491-.187l.742.129.204-.724c.107-.377.389-.782.831-1.142a3.97 3.97 0 0 1 1.528-.763c.668-.163 1.237-.078 1.612.18.328.225.657.685.688 1.628v.015l.003.133a7.468 7.468 0 0 1-7.029 7.485z"/>
      <path fill="#010101" style="fill:var(--color5, #010101)" d="M40 20.788c1.176-.144 1.824-.672 1.824-1.608V9.412c0-.936-.648-1.488-1.824-1.608v-.96h12.192c.216 0 .312.072.336.24.072.72.12 1.44.504 3.192h-.6c-.84-1.464-1.56-2.232-2.976-2.232h-2.04c-1.08 0-1.536.6-1.536 1.56v2.52c0 .96.456 1.488 1.536 1.488h.96c1.944 0 2.304-.456 2.496-1.536h.528v4.272h-.528c-.192-1.008-.552-1.512-2.496-1.512h-.96c-1.08 0-1.536.528-1.536 1.488v2.856c0 .936.648 1.464 2.064 1.608v.96H40v-.96zM59.089 21.892c-2.952 0-5.952-1.776-5.952-5.664 0-3.864 3-5.52 5.88-5.52 2.976 0 5.952 1.776 5.952 5.664 0 3.864-2.976 5.52-5.88 5.52zm-2.112-6.72c0 2.976.984 5.616 2.52 5.616.936 0 1.632-.936 1.632-3.408 0-2.952-.936-5.592-2.52-5.592-.96 0-1.632.96-1.632 3.384zM71.992 21.892c-2.952 0-5.952-1.776-5.952-5.664 0-3.864 3-5.52 5.88-5.52 2.976 0 5.952 1.776 5.952 5.664 0 3.864-2.976 5.52-5.88 5.52zm-2.112-6.72c0 2.976.984 5.616 2.52 5.616.936 0 1.632-.936 1.632-3.408 0-2.952-.936-5.592-2.52-5.592-.96 0-1.632.96-1.632 3.384zM83.527 21.892c-2.256 0-4.584-1.848-4.584-5.4 0-3.816 2.616-5.784 5.16-5.784 2.64 0 3.336 2.064 3.336-.36v-1.44c0-1.128-.624-1.32-1.512-1.248v-.936l3.912-.648c.816-.12 1.2.24 1.2.96V19.3c0 .792.312 1.32 1.008 1.032v.528c-.336.816-1.2 1.032-1.944 1.032-.816 0-1.848-.264-2.136-.984-.192-.456-.408-.696-.768-.696-.48 0-1.44 1.68-3.672 1.68zm-.72-6.648c0 2.376 1.056 4.704 2.592 4.704.936 0 2.04-.672 2.04-2.688v-1.128c0-3.12-1.464-4.344-2.664-4.344-1.224 0-1.968 1.512-1.968 3.456zM97.084 20.788c1.176-.144 1.824-.672 1.824-1.608V9.436c0-.96-.648-1.512-1.824-1.632v-.96h7.416c4.704 0 7.032 1.128 7.032 3.552 0 1.368-.792 2.712-3.528 3.144 3.072.432 4.392 1.872 4.392 3.912 0 2.784-2.472 4.296-5.832 4.296-1.92 0-6-.6-9.48 0v-.96zm5.88-1.248c0 .624.384.912 1.08.912h.84c1.824 0 3.192-.696 3.192-3.024 0-2.256-1.392-3.24-4.032-3.24-.624 0-1.08.48-1.08 1.44v3.912zm0-7.944c0 .96.456 1.44 1.536 1.44h.624c1.656 0 2.088-1.296 2.088-2.4 0-1.68-.912-2.616-2.472-2.616h-.24c-1.08 0-1.536.504-1.536 1.464v2.112zM119.431 21.892c-2.952 0-5.952-1.776-5.952-5.664 0-3.864 3-5.52 5.88-5.52 2.976 0 5.952 1.776 5.952 5.664 0 3.864-2.976 5.52-5.88 5.52zm-2.112-6.72c0 2.976.984 5.616 2.52 5.616.936 0 1.632-.936 1.632-3.408 0-2.952-.936-5.592-2.52-5.592-.96 0-1.632.96-1.632 3.384zM130.528 21.892c-1.68 0-3.504-.696-3.504-4.464v-3.816c0-1.104-.624-1.296-1.512-1.272v-.936l3.912-.648c.816-.12 1.2.24 1.2.96v5.136c0 1.68.696 2.88 1.992 2.88 1.32 0 1.992-1.2 1.992-2.88v-3.24c0-1.104-.624-1.296-1.512-1.272v-.936l3.888-.648c.84-.12 1.224.24 1.224.96V19.3c0 .792.312 1.32 1.008 1.032v.528c-.336.816-1.2 1.032-2.016 1.032-1.728 0-2.208-1.08-2.328-1.608-.072-.336-.264-.504-.432-.504s-.288.144-.408.312c-.672.912-1.608 1.8-3.504 1.8zM144.84 21.868c-2.208 0-3.552-1.224-3.552-3.552V13.06c0-.84-.192-1.008-.744-1.008h-1.08v-.768c1.992-.456 2.952-1.368 3.768-2.688.192-.312.36-.408.672-.408h.432c.36 0 .576.216.576.576l-.024 1.488c0 .528.264.672 1.488.672h1.56v1.272l-1.56-.096c-1.224-.072-1.488.144-1.488 1.008v5.088c0 1.32.144 2.208 1.32 2.208.312 0 .792-.048 1.248-.384.312.384.432.72.12 1.008-.552.48-1.536.84-2.736.84zM148.904 20.812c1.104-.072 1.512-.432 1.512-1.728v-5.496c0-1.128-.624-1.32-1.488-1.248v-.936l3.888-.648c.816-.12 1.2.24 1.2.96v7.368c0 1.296.408 1.656 1.488 1.728v.936h-6.6v-.936zm.936-13.08c0-1.152.96-2.04 2.088-2.04 1.104 0 2.04.888 2.04 2.04s-.936 2.04-2.04 2.04c-1.128 0-2.088-.888-2.088-2.04zM162.671 25.396c1.368-.096 1.776-.456 1.776-1.656v-2.568c0-.432-.216-.576-.432-.576-.12 0-.24.048-.336.144-.48.48-1.512 1.152-3.024 1.152-2.472 0-4.752-1.824-4.752-5.352 0-3.84 2.664-5.832 5.424-5.832 2.4 0 3.408 1.464 4.296 1.464.84 0 1.176-1.44 1.848-1.44.432 0 .576.24.576.576V23.74c0 1.2.408 1.56 1.488 1.656v.912h-6.864v-.912zm-2.904-10.176c0 2.376 1.008 4.728 2.688 4.728.912 0 1.968-.672 1.992-3.36-.024-3.6-1.512-4.8-2.712-4.8-1.296 0-1.968 1.512-1.968 3.432zM174.194 21.892c-1.68 0-3.504-.696-3.504-4.464v-3.816c0-1.104-.624-1.296-1.512-1.272v-.936l3.912-.648c.816-.12 1.2.24 1.2.96v5.136c0 1.68.696 2.88 1.992 2.88 1.32 0 1.992-1.2 1.992-2.88v-3.24c0-1.104-.624-1.296-1.512-1.272v-.936l3.888-.648c.84-.12 1.224.24 1.224.96V19.3c0 .792.312 1.32 1.008 1.032v.528c-.336.816-1.2 1.032-2.016 1.032-1.728 0-2.208-1.08-2.328-1.608-.072-.336-.264-.504-.432-.504s-.288.144-.408.312c-.672.912-1.608 1.8-3.504 1.8zM189.818 21.892c-3 0-5.976-1.728-5.976-5.496 0-3.936 3.216-5.688 6.192-5.688 2.544 0 4.608 1.272 4.608 3.384 0 2.16-2.088 2.28-4.2 2.448l-1.872.144c-.408.024-.624.216-.624.768 0 1.776 1.92 2.568 3.504 2.568.84 0 1.992-.24 2.856-1.224l.72.648c-.456.936-2.4 2.448-5.208 2.448zm-2.04-7.176c0 .696.168 1.056.792 1.032l.864-.096c1.656-.168 1.992-.6 1.992-1.536 0-1.152-.48-2.304-1.728-2.304-1.56 0-1.92 1.752-1.92 2.904z"/>
    </symbol>
    <symbol id="icon-logo-footer" viewBox="0 0 197 32">
      <path fill="#e8e8e2" style="fill:var(--color1, #e8e8e2)" d="M32 16c0 8.837-7.163 16-16 16S0 24.837 0 16 7.163 0 16 0s16 7.163 16 16z"/>
      <path fill="#6d8434" style="fill:var(--color2, #6d8434)" d="M16.93 8.89a3.363 3.363 0 0 0-1.136-1.067c-1.257-.721-2.876-.594-4.37.243C8.65 9.62 6.833 12.542 6.833 16c0 4.617 3.342 8.344 7.706 9.05.477.077.964.117 1.461.117a9.128 9.128 0 0 0 6.516-2.701 9.142 9.142 0 0 0 2.651-6.537c-.019-1.61-.665-3.586-1.686-5.165-1.017-1.573-2.58-3.007-4.523-2.988-.948.002-1.596.523-2.028 1.115V8.89zm5.546 3.454a3.944 3.944 0 0 0-1.052-.027l-.967-1.625-1.432.85.743 1.25a5.631 5.631 0 0 0-.887.521l-.015-.048c-.223-.675-.652-1.229-1.226-1.78l.003-.017c.058-.269.149-.617.287-.954.311-.763.672-1.073 1.033-1.073h.009c1.076-.012 2.197.814 3.109 2.226a8.6 8.6 0 0 1 .395.677l-.001.001zm-5.134 2.498a4.382 4.382 0 0 0-.833.098 3.127 3.127 0 0 0-.885-.954 2.683 2.683 0 0 0-2.535-.328 11.72 11.72 0 0 0-.27-.151l2.694-2.641-1.167-1.19-3.196 3.133c-.675-.196-1.306-.266-1.872-.188a7.257 7.257 0 0 1 2.962-3.102c1.137-.637 2.114-.602 2.726-.251.583.334 1.068 1.093.946 2.448l-.037.419.315.279c.685.606.97.998 1.093 1.372.087.262.115.58.059 1.056zM15 15.679c-.712.596-1.189 1.432-1.467 2.335l-2.478-2.721-1.232 1.123 3.407 3.74c-.004.993.123 2.01.308 2.929A7.46 7.46 0 0 1 8.5 15.999c0-.867.241-1.339.524-1.546.268-.197.855-.357 2.058.087.435.161.938.408 1.514.766l.418.26.43-.242c.519-.292.916-.188 1.22.025.133.093.248.21.335.329zm1.471 7.806 6.077-6.697-1.234-1.12-2.443 2.692.006-.845-1.667-.012-.019 2.708-2.069 2.281c-.157-.851-.25-1.765-.22-2.622.053-1.462.637-2.664 1.502-3.14.358-.198.991-.275 1.491-.187l.742.129.204-.724c.107-.377.389-.782.831-1.142a3.97 3.97 0 0 1 1.528-.763c.668-.163 1.237-.078 1.612.18.328.225.657.685.688 1.628v.015l.003.133a7.468 7.468 0 0 1-7.029 7.485z"/>
      <path fill="#e8e8e2" style="fill:var(--color1, #e8e8e2)" d="M40.72 23.04c1.176-.144 1.824-.672 1.824-1.608v-9.768c0-.936-.648-1.488-1.824-1.608v-.96h12.192c.216 0 .312.072.336.24.072.72.12 1.44.504 3.192h-.6c-.84-1.464-1.56-2.232-2.976-2.232h-2.04c-1.08 0-1.536.6-1.536 1.56v2.52c0 .96.456 1.488 1.536 1.488h.96c1.944 0 2.304-.456 2.496-1.536h.528V18.6h-.528c-.192-1.008-.552-1.512-2.496-1.512h-.96c-1.08 0-1.536.528-1.536 1.488v2.856c0 .936.648 1.464 2.064 1.608V24H40.72v-.96zm19.089 1.104c-2.952 0-5.952-1.776-5.952-5.664 0-3.864 3-5.52 5.88-5.52 2.976 0 5.952 1.776 5.952 5.664 0 3.864-2.976 5.52-5.88 5.52zm-2.112-6.72c0 2.976.984 5.616 2.52 5.616.936 0 1.632-.936 1.632-3.408 0-2.952-.936-5.592-2.52-5.592-.96 0-1.632.96-1.632 3.384zm15.015 6.72c-2.952 0-5.952-1.776-5.952-5.664 0-3.864 3-5.52 5.88-5.52 2.976 0 5.952 1.776 5.952 5.664 0 3.864-2.976 5.52-5.88 5.52zm-2.112-6.72c0 2.976.984 5.616 2.52 5.616.936 0 1.632-.936 1.632-3.408 0-2.952-.936-5.592-2.52-5.592-.96 0-1.632.96-1.632 3.384zm13.647 6.72c-2.256 0-4.584-1.848-4.584-5.4 0-3.816 2.616-5.784 5.16-5.784 2.64 0 3.336 2.064 3.336-.36v-1.44c0-1.128-.624-1.32-1.512-1.248v-.936l3.912-.648c.816-.12 1.2.24 1.2.96v12.264c0 .792.312 1.32 1.008 1.032v.528c-.336.816-1.2 1.032-1.944 1.032-.816 0-1.848-.264-2.136-.984-.192-.456-.408-.696-.768-.696-.48 0-1.44 1.68-3.672 1.68zm-.72-6.648c0 2.376 1.056 4.704 2.592 4.704.936 0 2.04-.672 2.04-2.688v-1.128c0-3.12-1.464-4.344-2.664-4.344-1.224 0-1.968 1.512-1.968 3.456zm14.277 5.544c1.176-.144 1.824-.672 1.824-1.608v-9.744c0-.96-.648-1.512-1.824-1.632v-.96h7.416c4.704 0 7.032 1.128 7.032 3.552 0 1.368-.792 2.712-3.528 3.144 3.072.432 4.392 1.872 4.392 3.912 0 2.784-2.472 4.296-5.832 4.296-1.92 0-6-.6-9.48 0v-.96zm5.88-1.248c0 .624.384.912 1.08.912h.84c1.824 0 3.192-.696 3.192-3.024 0-2.256-1.392-3.24-4.032-3.24-.624 0-1.08.48-1.08 1.44v3.912zm0-7.944c0 .96.456 1.44 1.536 1.44h.624c1.656 0 2.088-1.296 2.088-2.4 0-1.68-.912-2.616-2.472-2.616h-.24c-1.08 0-1.536.504-1.536 1.464v2.112zm16.467 10.296c-2.952 0-5.952-1.776-5.952-5.664 0-3.864 3-5.52 5.88-5.52 2.976 0 5.952 1.776 5.952 5.664 0 3.864-2.976 5.52-5.88 5.52zm-2.112-6.72c0 2.976.984 5.616 2.52 5.616.936 0 1.632-.936 1.632-3.408 0-2.952-.936-5.592-2.52-5.592-.96 0-1.632.96-1.632 3.384zm13.209 6.72c-1.68 0-3.504-.696-3.504-4.464v-3.816c0-1.104-.624-1.296-1.512-1.272v-.936l3.912-.648c.816-.12 1.2.24 1.2.96v5.136c0 1.68.696 2.88 1.992 2.88 1.32 0 1.992-1.2 1.992-2.88v-3.24c0-1.104-.624-1.296-1.512-1.272v-.936l3.888-.648c.84-.12 1.224.24 1.224.96v7.584c0 .792.312 1.32 1.008 1.032v.528c-.336.816-1.2 1.032-2.016 1.032-1.728 0-2.208-1.08-2.328-1.608-.072-.336-.264-.504-.432-.504s-.288.144-.408.312c-.672.912-1.608 1.8-3.504 1.8zm14.312-.024c-2.208 0-3.552-1.224-3.552-3.552v-5.256c0-.84-.192-1.008-.744-1.008h-1.08v-.768c1.992-.456 2.952-1.368 3.768-2.688.192-.312.36-.408.672-.408h.432c.36 0 .576.216.576.576l-.024 1.488c0 .528.264.672 1.488.672h1.56v1.272l-1.56-.096c-1.224-.072-1.488.144-1.488 1.008v5.088c0 1.32.144 2.208 1.32 2.208.312 0 .792-.048 1.248-.384.312.384.432.72.12 1.008-.552.48-1.536.84-2.736.84zm4.064-1.056c1.104-.072 1.512-.432 1.512-1.728V15.84c0-1.128-.624-1.32-1.488-1.248v-.936l3.888-.648c.816-.12 1.2.24 1.2.96v7.368c0 1.296.408 1.656 1.488 1.728V24h-6.6v-.936zm.936-13.08c0-1.152.96-2.04 2.088-2.04 1.104 0 2.04.888 2.04 2.04s-.936 2.04-2.04 2.04c-1.128 0-2.088-.888-2.088-2.04zm12.831 17.664c1.368-.096 1.776-.456 1.776-1.656v-2.568c0-.432-.216-.576-.432-.576-.12 0-.24.048-.336.144-.48.48-1.512 1.152-3.024 1.152-2.472 0-4.752-1.824-4.752-5.352 0-3.84 2.664-5.832 5.424-5.832 2.4 0 3.408 1.464 4.296 1.464.84 0 1.176-1.44 1.848-1.44.432 0 .576.24.576.576v12.432c0 1.2.408 1.56 1.488 1.656v.912h-6.864v-.912zm-2.904-10.176c0 2.376 1.008 4.728 2.688 4.728.912 0 1.968-.672 1.992-3.36-.024-3.6-1.512-4.8-2.712-4.8-1.296 0-1.968 1.512-1.968 3.432zm14.427 6.672c-1.68 0-3.504-.696-3.504-4.464v-3.816c0-1.104-.624-1.296-1.512-1.272v-.936l3.912-.648c.816-.12 1.2.24 1.2.96v5.136c0 1.68.696 2.88 1.992 2.88 1.32 0 1.992-1.2 1.992-2.88v-3.24c0-1.104-.624-1.296-1.512-1.272v-.936l3.888-.648c.84-.12 1.224.24 1.224.96v7.584c0 .792.312 1.32 1.008 1.032v.528c-.336.816-1.2 1.032-2.016 1.032-1.728 0-2.208-1.08-2.328-1.608-.072-.336-.264-.504-.432-.504s-.288.144-.408.312c-.672.912-1.608 1.8-3.504 1.8zm15.624 0c-3 0-5.976-1.728-5.976-5.496 0-3.936 3.216-5.688 6.192-5.688 2.544 0 4.608 1.272 4.608 3.384 0 2.16-2.088 2.28-4.2 2.448l-1.872.144c-.408.024-.624.216-.624.768 0 1.776 1.92 2.568 3.504 2.568.84 0 1.992-.24 2.856-1.224l.72.648c-.456.936-2.4 2.448-5.208 2.448zm-2.04-7.176c0 .696.168 1.056.792 1.032l.864-.096c1.656-.168 1.992-.6 1.992-1.536 0-1.152-.48-2.304-1.728-2.304-1.56 0-1.92 1.752-1.92 2.904z"/>
    </symbol>
    <symbol id="icon-instagram" viewBox="0 0 32 32">
      <path d="M28.718 10.756a9.264 9.264 0 0 0-.596-3.145 6.547 6.547 0 0 0-3.743-3.737 9.42 9.42 0 0 0-3.108-.596c-1.368-.061-1.801-.078-5.273-.078s-3.916 0-5.274.078a9.413 9.413 0 0 0-3.106.596 6.541 6.541 0 0 0-3.743 3.737 9.288 9.288 0 0 0-.596 3.101c-.061 1.367-.08 1.8-.08 5.265s0 3.909.08 5.265a9.335 9.335 0 0 0 .596 3.104 6.548 6.548 0 0 0 3.744 3.735 9.37 9.37 0 0 0 3.106.639c1.369.061 1.803.08 5.274.08s3.916 0 5.274-.08a9.362 9.362 0 0 0 3.108-.595 6.555 6.555 0 0 0 3.743-3.737 9.35 9.35 0 0 0 .596-3.104c.061-1.365.08-1.798.08-5.265-.003-3.466-.003-3.906-.082-5.264zM15.99 22.531c-3.631 0-6.572-2.936-6.572-6.561s2.941-6.561 6.572-6.561c3.628 0 6.572 2.936 6.572 6.561s-2.944 6.561-6.572 6.561zm6.834-11.835a1.53 1.53 0 1 1 0-3.06 1.53 1.53 0 1 1 0 3.06z"/>
      <path d="M15.992 19.976a4.004 4.004 0 1 0 0-8.009 4.004 4.004 0 0 0 0 8.009z"/>
    </symbol>
    <symbol id="icon-youtube" viewBox="0 0 32 32">
      <path d="M24.24 6c-1.36-.08-4.16-.16-8.4-.16h-.56c-4.08 0-6.8.08-8.16.24-1.84.16-3.12.64-3.84 1.28-.64.56-1.12 1.6-1.28 2.96-.08.88-.16 2.72-.16 5.52v.4c0 2.64.08 4.48.24 5.36.24 1.28.64 2.24 1.44 2.8.8.64 2.16 1.04 4.08 1.2 1.36.08 4.16.16 8.4.16h.56c4.08 0 6.8-.08 8.16-.24 1.84-.16 3.12-.64 3.84-1.28.64-.56 1.12-1.6 1.28-2.96.08-.88.16-2.72.16-5.52v-.4c0-2.64-.08-4.48-.24-5.36-.24-1.28-.64-2.24-1.44-2.8-.8-.64-2.16-1.04-4.08-1.2zm-3.12 9.84-8.8 5.28V10.56l8.8 5.28z"/>
    </symbol>
    <symbol id="icon-facebook" viewBox="0 0 32 32">
      <path d="M19.52 4.64h.96v3.6h-1.2c-.48 0-.96 0-1.2.24s-.24.48-.24 1.04v1.28h2.64v3.04h-2.64v13.2h-4.08V13.76H11.6v-3.04h2.16V9.68c0-1.76.24-3.04.72-3.6.72-1.04 2.16-1.52 4.32-1.52.24.08.48.08.72.08z"/>
    </symbol>
    <symbol id="icon-scroll" viewBox="0 0 32 32">
      <path d="m27.414 12.586-10-10a2 2 0 0 0-2.828 0l-10 10a2 2 0 1 0 2.828 2.828L14 8.828V28a2 2 0 1 0 4 0V8.828l6.586 6.586c.39.39.902.586 1.414.586s1.024-.195 1.414-.586a2 2 0 0 0 0-2.828z"/>
    </symbol>
    <symbol id="icon-cart" viewBox="0 0 32 32">
<path fill="none" stroke="#e8e8e2" style="stroke: var(--color1, #e8e8e2)" stroke-linejoin="round" stroke-linecap="round" stroke-miterlimit="4" stroke-width="3.5556" d="M26.667 8l-14.667 14.667-6.667-6.667"></path>
</symbol>
    <symbol id="icon-shop-cart" viewBox="0 0 32 32">
      <path d="M4.8 1.6c-0.424 0-0.831 0.169-1.131 0.469s-0.469 0.707-0.469 1.131c0 0.424 0.169 0.831 0.469 1.131s0.707 0.469 1.131 0.469h1.952l0.488 1.955c0.005 0.023 0.010 0.045 0.016 0.067l2.173 8.688-1.429 1.427c-2.016 2.016-0.589 5.462 2.262 5.462h13.737c0.424 0 0.831-0.169 1.131-0.469s0.469-0.707 0.469-1.131-0.169-0.831-0.469-1.131c-0.3-0.3-0.707-0.469-1.131-0.469h-13.738l1.6-1.6h10.537c0.297-0 0.588-0.083 0.841-0.239s0.457-0.38 0.59-0.646l4.8-9.6c0.122-0.244 0.18-0.515 0.167-0.787s-0.094-0.537-0.237-0.769c-0.143-0.232-0.343-0.423-0.581-0.556s-0.506-0.203-0.779-0.203h-17.152l-0.496-1.989c-0.087-0.346-0.286-0.653-0.568-0.873s-0.628-0.339-0.984-0.339h-3.2zM25.6 26.4c0 0.636-0.253 1.247-0.703 1.697s-1.060 0.703-1.697 0.703c-0.636 0-1.247-0.253-1.697-0.703s-0.703-1.061-0.703-1.697 0.253-1.247 0.703-1.697c0.45-0.45 1.060-0.703 1.697-0.703s1.247 0.253 1.697 0.703c0.45 0.45 0.703 1.061 0.703 1.697zM10.4 28.8c0.636 0 1.247-0.253 1.697-0.703s0.703-1.061 0.703-1.697c0-0.636-0.253-1.247-0.703-1.697s-1.061-0.703-1.697-0.703c-0.636 0-1.247 0.253-1.697 0.703s-0.703 1.061-0.703 1.697c0 0.636 0.253 1.247 0.703 1.697s1.061 0.703 1.697 0.703z"></path>
    </symbol>
    <symbol id="icon-discount" viewBox="0 0 32 32">
<path fill="#6d8434" style="fill: var(--color1, #6d8434)" d="M32 16c0 8.837-7.163 16-16 16s-16-7.163-16-16c0-8.837 7.163-16 16-16s16 7.163 16 16z"></path>
<path fill="#fafafa" style="fill: var(--color2, #fafafa)" d="M26.947 20.863l-0.233 0.63-4.294-1.582 0.233-0.63 0.354 0.131 0.004-0.012c-0.15-0.24-0.274-0.626-0.099-1.1 0.29-0.786 1.118-1.143 2.127-0.771s1.406 1.18 1.116 1.966c-0.175 0.474-0.508 0.693-0.802 0.768l-0.004 0.012 1.597 0.589zM23.39 18.597c-0.191 0.516 0.118 0.992 0.797 1.242 0.685 0.252 1.223 0.089 1.413-0.427 0.204-0.552-0.192-1.032-0.792-1.254s-1.214-0.113-1.418 0.439z"></path>
<path fill="#fafafa" style="fill: var(--color2, #fafafa)" d="M25.093 22.529c0.11-0.15 0.327-0.229 0.513-0.093s0.171 0.363 0.061 0.512c-0.117 0.16-0.325 0.238-0.511 0.102s-0.18-0.361-0.062-0.521zM24.845 21.936l-0.397 0.542-2.64-1.93 0.397-0.542 2.64 1.93z"></path>
<path fill="#fafafa" style="fill: var(--color2, #fafafa)" d="M21.828 23.303c-0.554 0.274-1.144 0.585-1.641-0.017-0.4-0.483-0.233-1.126 0.38-1.63 0.815-0.671 1.48-0.58 1.945-0.068l-0.504 0.415c-0.249-0.251-0.559-0.385-1.093 0.054-0.361 0.297-0.367 0.601-0.237 0.759 0.261 0.316 0.583 0.092 1.027-0.124 0.478-0.236 1.086-0.604 1.559-0.032 0.343 0.414 0.25 1.046-0.382 1.567-0.687 0.565-1.319 0.464-1.716 0.053l0.504-0.415c0.198 0.169 0.464 0.29 0.869-0.044 0.311-0.256 0.381-0.513 0.235-0.691-0.212-0.257-0.51-0.044-0.945 0.173z"></path>
<path fill="#fafafa" style="fill: var(--color2, #fafafa)" d="M18.35 25.162c0.132 0.307 0.462 0.62 1.007 0.435 0.624-0.212 0.709-0.836 0.51-1.417s-0.641-1.026-1.271-0.812c-0.545 0.185-0.617 0.629-0.524 0.982l-0.636 0.216c-0.196-0.731 0.176-1.445 0.982-1.719 0.927-0.315 1.755 0.148 2.085 1.117s-0.042 1.839-0.963 2.152c-0.806 0.274-1.509-0.062-1.828-0.738l0.636-0.216z"></path>
<path fill="#fafafa" style="fill: var(--color2, #fafafa)" d="M15.606 23.245c1.022 0.062 1.599 0.809 1.537 1.825s-0.724 1.687-1.746 1.624c-1.022-0.062-1.599-0.809-1.537-1.825s0.724-1.687 1.746-1.624zM15.573 23.795c-0.639-0.039-1.002 0.445-1.042 1.116-0.041 0.677 0.261 1.196 0.9 1.235s1.001-0.439 1.042-1.116c0.041-0.671-0.261-1.196-0.9-1.235z"></path>
<path fill="#fafafa" style="fill: var(--color2, #fafafa)" d="M10.77 25.275l-0.605-0.293 1.431-2.941 0.605 0.293-0.185 0.38 0.012 0.006c0.267-0.155 0.685-0.237 1.191 0.009 0.547 0.265 0.825 0.791 0.497 1.465l-0.988 2.032-0.61-0.296 0.904-1.859c0.193-0.397 0.149-0.731-0.265-0.932-0.466-0.226-0.903-0.090-1.116 0.348l-0.871 1.79z"></path>
<path fill="#fafafa" style="fill: var(--color2, #fafafa)" d="M7.833 22.957c-0.406-0.453-0.464-1.045 0.095-1.543l1.685-1.505 0.453 0.505-1.542 1.377c-0.329 0.294-0.416 0.62-0.108 0.963 0.346 0.386 0.802 0.425 1.165 0.101l1.485-1.326 0.448 0.5-2.44 2.178-0.448-0.5 0.315-0.281-0.009-0.010c-0.306 0.042-0.724-0.040-1.1-0.46z"></path>
<path fill="#fafafa" style="fill: var(--color2, #fafafa)" d="M6.447 19.376l0.253 0.56 1.617-0.728c0.338-0.152 0.306-0.334 0.103-0.72l0.502-0.226c0.085 0.109 0.163 0.236 0.237 0.399 0.222 0.49 0.121 0.858-0.509 1.142l-1.669 0.751 0.195 0.432-0.502 0.226-0.195-0.432-0.94 0.423-0.28-0.618 0.94-0.423-0.253-0.56 0.502-0.226z"></path>
<path fill="#fafafa" style="fill: var(--color2, #fafafa)" d="M4.494 12.648l0.146-0.656 4.467 0.994-0.146 0.656-0.369-0.082-0.003 0.012c0.181 0.217 0.355 0.584 0.245 1.077-0.182 0.818-0.954 1.283-2.004 1.049s-1.552-0.981-1.37-1.8c0.11-0.493 0.411-0.754 0.692-0.869l0.003-0.012-1.662-0.37zM8.322 14.417c0.12-0.537-0.25-0.967-0.956-1.124-0.712-0.158-1.223 0.075-1.343 0.613-0.128 0.575 0.329 0.998 0.953 1.136s1.218-0.050 1.346-0.625z"></path>
<path fill="#fafafa" style="fill: var(--color2, #fafafa)" d="M6.103 10.748c-0.089 0.163-0.293 0.271-0.495 0.161s-0.218-0.336-0.129-0.5c0.095-0.174 0.29-0.279 0.493-0.17s0.226 0.334 0.132 0.508zM6.427 11.303l0.321-0.59 2.875 1.559-0.321 0.59-2.875-1.559z"></path>
<path fill="#fafafa" style="fill: var(--color2, #fafafa)" d="M9.241 9.534c0.514-0.344 1.057-0.73 1.629-0.198 0.459 0.427 0.379 1.086-0.163 1.666-0.72 0.772-1.391 0.769-1.919 0.322l0.445-0.477c0.28 0.216 0.605 0.309 1.076-0.197 0.319-0.342 0.285-0.644 0.135-0.783-0.3-0.279-0.59-0.015-1.002 0.257-0.443 0.296-0.998 0.741-1.542 0.236-0.394-0.366-0.385-1.004 0.174-1.603 0.607-0.65 1.247-0.633 1.694-0.278l-0.445 0.477c-0.218-0.142-0.498-0.227-0.856 0.157-0.275 0.295-0.311 0.559-0.142 0.715 0.244 0.227 0.511-0.023 0.914-0.295z"></path>
<path fill="#fafafa" style="fill: var(--color2, #fafafa)" d="M12.396 7.25c-0.172-0.286-0.542-0.552-1.057-0.295-0.59 0.295-0.589 0.924-0.314 1.473s0.774 0.93 1.37 0.632c0.515-0.257 0.526-0.706 0.386-1.044l0.601-0.3c0.293 0.698 0.022 1.456-0.74 1.836-0.876 0.438-1.759 0.091-2.218-0.824s-0.208-1.828 0.662-2.262c0.762-0.38 1.504-0.143 1.911 0.483l-0.601 0.3z"></path>
<path fill="#fafafa" style="fill: var(--color2, #fafafa)" d="M15.372 8.766c-1.021 0.074-1.693-0.589-1.767-1.604s0.492-1.768 1.513-1.843c1.021-0.074 1.693 0.589 1.768 1.604s-0.492 1.768-1.513 1.843zM15.331 8.217c0.638-0.046 0.933-0.575 0.884-1.245-0.050-0.677-0.418-1.15-1.057-1.104s-0.934 0.568-0.884 1.245c0.049 0.67 0.418 1.15 1.057 1.104z"></path>
<path fill="#fafafa" style="fill: var(--color2, #fafafa)" d="M19.919 6.105l0.638 0.21-1.026 3.105-0.638-0.21 0.133-0.401-0.012-0.004c-0.244 0.189-0.647 0.326-1.182 0.149-0.577-0.191-0.923-0.675-0.688-1.386l0.709-2.145 0.644 0.213-0.649 1.963c-0.139 0.419-0.051 0.745 0.387 0.889 0.492 0.162 0.907-0.031 1.059-0.493l0.625-1.89z"></path>
<path fill="#fafafa" style="fill: var(--color2, #fafafa)" d="M23.143 8.004c0.462 0.396 0.597 0.975 0.108 1.543l-1.473 1.713-0.515-0.441 1.348-1.567c0.288-0.335 0.331-0.669-0.019-0.969-0.394-0.337-0.851-0.316-1.168 0.053l-1.298 1.509-0.51-0.437 2.132-2.48 0.51 0.437-0.275 0.32 0.010 0.008c0.298-0.082 0.723-0.055 1.15 0.311z"></path>
<path fill="#fafafa" style="fill: var(--color2, #fafafa)" d="M24.984 11.342l-0.326-0.521-1.504 0.939c-0.315 0.196-0.258 0.372-0.005 0.727l-0.467 0.291c-0.099-0.097-0.193-0.211-0.288-0.363-0.285-0.456-0.236-0.834 0.351-1.2l1.553-0.969-0.252-0.401 0.467-0.291 0.252 0.401 0.874-0.546 0.36 0.575-0.874 0.546 0.326 0.521-0.467 0.291z"></path>
<path fill="#fafafa" style="fill: var(--color2, #fafafa)" d="M17.556 14.756c-2.8 0.622-3.453 2.542-4.1 4.15l0.588 0.205 0.296-0.716c0.149 0.053 0.305 0.093 0.417 0.093 3.422 0 4.356-5.289 4.356-5.289-0.311 0.622-2.489 0.7-4.044 1.011s-2.178 1.633-2.178 2.256 0.544 1.167 0.544 1.167c1.011-2.878 4.122-2.878 4.122-2.878z"></path>
</symbol>
<symbol id="icon-cart" viewBox="0 0 30 32">
    <path d="M2.709 1.723c-0.457 0-0.895 0.182-1.218 0.505s-0.505 0.761-0.505 1.218c0 0.457 0.182 0.895 0.505 1.218s0.761 0.505 1.218 0.505h2.102l0.526 2.106c0.005 0.024 0.011 0.048 0.017 0.072l2.34 9.356-1.539 1.537c-2.171 2.171-0.634 5.883 2.436 5.883h14.794c0.457 0 0.895-0.182 1.218-0.505s0.505-0.761 0.505-1.218-0.182-0.895-0.505-1.218c-0.323-0.323-0.761-0.505-1.218-0.505h-14.794l1.723-1.723h11.348c0.32-0 0.633-0.089 0.906-0.258s0.492-0.409 0.635-0.695l5.169-10.338c0.131-0.263 0.193-0.554 0.18-0.848s-0.101-0.578-0.256-0.828c-0.154-0.25-0.37-0.456-0.626-0.599s-0.545-0.218-0.839-0.218h-18.471l-0.534-2.142c-0.093-0.373-0.308-0.703-0.611-0.94s-0.676-0.365-1.060-0.365h-3.446zM25.109 28.431c0 0.686-0.272 1.343-0.757 1.828s-1.142 0.757-1.828 0.757-1.343-0.272-1.828-0.757c-0.485-0.485-0.757-1.142-0.757-1.828s0.272-1.343 0.757-1.827 1.142-0.757 1.828-0.757c0.686 0 1.343 0.272 1.828 0.757s0.757 1.142 0.757 1.827zM8.739 31.015c0.685 0 1.343-0.272 1.828-0.757s0.757-1.142 0.757-1.828c0-0.685-0.272-1.343-0.757-1.827s-1.142-0.757-1.828-0.757c-0.685 0-1.343 0.272-1.828 0.757s-0.757 1.142-0.757 1.827c0 0.686 0.272 1.343 0.757 1.828s1.142 0.757 1.828 0.757z"></path>
</symbol>
<symbol id="icon-logo" viewBox="0 0 34 32">
    <path d="M18.652 2.799c-0.494-0.751-1.158-1.374-1.939-1.82-2.145-1.23-4.908-1.014-7.458 0.414-4.735 2.652-7.835 7.639-7.835 13.541 0 7.879 5.703 14.241 13.151 15.445 0.814 0.131 1.646 0.199 2.493 0.199 2.067 0.007 4.114-0.396 6.024-1.187s3.642-1.954 5.098-3.421 2.605-3.209 3.382-5.124c0.777-1.915 1.165-3.966 1.141-6.032-0.033-2.748-1.135-6.12-2.877-8.815-1.735-2.685-4.403-5.131-7.718-5.1-1.618 0.003-2.724 0.893-3.462 1.903v-0.001zM28.117 8.694c-0.594-0.095-1.198-0.111-1.796-0.047l-1.65-2.773-2.444 1.451 1.269 2.133c-0.531 0.25-1.038 0.547-1.515 0.889-0.008-0.028-0.017-0.055-0.026-0.082-0.38-1.152-1.114-2.098-2.092-3.038l0.006-0.028c0.098-0.459 0.255-1.052 0.489-1.628 0.53-1.303 1.146-1.83 1.764-1.83h0.016c1.836-0.020 3.749 1.389 5.306 3.799 0.242 0.374 0.466 0.759 0.674 1.155l-0.002 0.001zM19.355 12.956c-0.469 0.011-0.951 0.064-1.422 0.166-0.384-0.643-0.898-1.197-1.51-1.628-1.124-0.789-2.662-1.18-4.326-0.559-0.152-0.088-0.306-0.174-0.461-0.257l4.598-4.507-1.991-2.031-5.454 5.346c-1.152-0.334-2.229-0.454-3.196-0.32 1.113-2.234 2.875-4.079 5.056-5.294 1.94-1.087 3.608-1.027 4.652-0.428 0.996 0.57 1.822 1.865 1.614 4.177l-0.064 0.715 0.538 0.476c1.169 1.034 1.655 1.702 1.866 2.341 0.148 0.448 0.196 0.99 0.101 1.802zM15.359 14.386c-1.215 1.017-2.030 2.443-2.503 3.985l-4.23-4.644-2.103 1.917 5.814 6.383c-0.007 1.695 0.21 3.43 0.526 4.999-2.517-0.864-4.7-2.496-6.242-4.665s-2.366-4.767-2.355-7.428c0-1.479 0.411-2.285 0.895-2.638 0.457-0.336 1.459-0.61 3.513 0.148 0.742 0.274 1.601 0.695 2.584 1.307l0.714 0.444 0.734-0.412c0.886-0.498 1.563-0.321 2.082 0.043 0.228 0.159 0.422 0.358 0.572 0.562zM17.869 27.708l10.371-11.43-2.106-1.911-4.17 4.595 0.010-1.442-2.844-0.020-0.033 4.622-3.531 3.893c-0.267-1.452-0.427-3.012-0.375-4.476 0.091-2.496 1.088-4.547 2.563-5.359 0.612-0.337 1.691-0.469 2.544-0.319l1.266 0.22 0.349-1.236c0.182-0.644 0.664-1.334 1.418-1.948 0.765-0.618 1.655-1.063 2.608-1.303 1.139-0.279 2.111-0.134 2.75 0.307 0.559 0.384 1.121 1.169 1.173 2.779v0.026l0.004 0.228c0.014 3.26-1.221 6.401-3.453 8.777s-5.289 3.807-8.543 3.997z"></path>
</symbol>
<symbol id="icon-leaf" viewBox="0 0 34 32">
    <path d="M25.263 8.421C10.105 11.789 6.568 22.181 3.065 30.888L6.248 32l1.6-3.874c.808.286 1.651.505 2.257.505 18.526 0 23.579-28.632 23.579-28.632C32 3.367 20.21 3.788 11.789 5.473S0 14.315 0 17.684C0 21.052 2.947 24 2.947 24 8.421 8.421 25.263 8.421 25.263 8.421z"/>
</symbol>
    
    <symbol id="icon-caret-small-left" viewBox="0 0 32 32">
      <path stroke-linecap="round" stroke-linejoin="round" stroke-width="2" d="M18.667 21.333 13.334 16l5.333-5.333"/>
    </symbol>
    <symbol id="icon-caret-small-right" viewBox="0 0 31 32">
      <path stroke-linecap="round" stroke-linejoin="round" stroke-width="1.92" d="m12.8 10.24 5.12 5.12-5.12 5.12"/>
    </symbol>
<symbol id="icon-discount-leaf" viewBox="0 0 32 32">
      <path fill="#fafafa" style="fill:var(--color1, #fafafa)" d="M22.667 10.667c-12 2.667-14.8 10.893-17.573 17.787l2.52.88 1.267-3.067c.64.227 1.307.4 1.787.4C25.335 26.667 29.335 4 29.335 4c-1.333 2.667-10.667 3-17.333 4.333s-9.333 7-9.333 9.667 2.333 5 2.333 5c4.333-12.333 17.667-12.333 17.667-12.333z"/>
    </symbol>
    <symbol id="icon-discount-text" viewBox="0 0 32 32">
      <path fill="#6d8434" style="fill:var(--color2, #6d8434)" d="M32 16c0 8.837-7.163 16-16 16S0 24.837 0 16 7.163 0 16 0s16 7.163 16 16z"/>
      <path fill="#fafafa" style="fill:var(--color1, #fafafa)" d="M17.556 14.756c-2.8.622-3.453 2.542-4.1 4.15l.588.205.296-.716c.149.053.305.093.417.093 3.422 0 4.356-5.289 4.356-5.289-.311.622-2.489.7-4.044 1.011s-2.178 1.633-2.178 2.256.544 1.167.544 1.167c1.011-2.878 4.122-2.878 4.122-2.878z"/>
    </symbol>
    <symbol id="icon-minus" viewBox="0 0 32 32">
      <path stroke-linejoin="round" stroke-linecap="round" stroke-width="3.429" d="M6.67 16h18.667"/>
    </symbol>
    </defs>
	<symbol id="icon-organic-food" viewBox="0 0 32 32">
      <path d="M25.905 17.123c.114-.893.803-1.355 1.69-1.242s1.438.734 1.323 1.627c-.114.893-.803 1.355-1.69 1.242s-1.438-.734-1.323-1.627zm.48.061c-.071.558.332.905.918.98.592.076 1.064-.159 1.135-.717s-.327-.904-.918-.98c-.586-.075-1.064.159-1.135.717zM28.062 20.787a1.932 1.932 0 0 1-.102.238l-.525-.186.004-.011c.28-.504.071-1.061-.507-1.266l-1.384-.49.197-.557 2.71.959-.197.557-.509-.18-.004.011c.289.263.443.569.317.924zM26.615 23.318l-.312.502-2.275-1.413c-.703-.436-.749-1.055-.319-1.748.436-.703 1.045-.861 1.488-.659l-.315.507c-.245-.086-.514-.015-.76.382-.261.421-.204.754.236 1.027l.296.184.006-.01c-.102-.242-.144-.579.097-.966.38-.612 1.09-.807 1.86-.329.774.481.91 1.201.53 1.813-.24.387-.561.499-.814.521l-.006.01.287.178zm-1.506-1.842c-.252.406-.136.816.38 1.137s.935.243 1.188-.163c.273-.44.083-.869-.371-1.151-.449-.279-.923-.262-1.196.178zM24.021 25.083c.143.151.342.18.627-.091.343-.326.368-.552.133-.84l.416-.395c.359.419.401.977-.227 1.574-.461.438-.97.588-1.497.034l-.942-.991c-.14-.147-.246-.193-.398-.018l-.194-.204a.887.887 0 0 1 .206-.281c.228-.217.412-.236.646-.071l.008-.008c-.044-.308.072-.659.395-.965.424-.403.918-.406 1.251-.056.434.457.231.921-.194 1.519-.264.367-.421.594-.231.794zm-.598-1.83c-.355.337-.433.745-.111 1.084l.298.314c.023-.115.144-.323.305-.553.281-.415.339-.664.138-.876-.182-.192-.397-.189-.63.032zM21.959 27.496c-.469.256-.988.187-1.304-.39l-.953-1.743.523-.286.872 1.595c.186.341.448.48.804.285.4-.219.524-.601.319-.976l-.84-1.535.518-.283 1.379 2.523-.518.283-.178-.326-.01.005c-.025.27-.179.611-.613.848zM20.145 28.701c.155-.05.35.005.413.197s-.065.346-.22.397c-.166.054-.354.003-.417-.19s.058-.35.224-.404zm.129-.55-.562.182-.887-2.735.562-.182.888 2.735zM16.736 27.841c.059.287.289.615.791.551.575-.073.758-.596.689-1.132s-.371-.996-.952-.922c-.502.064-.642.434-.624.755l-.586.075c-.04-.664.406-1.215 1.148-1.31.854-.109 1.485.434 1.599 1.327s-.36 1.578-1.208 1.686c-.742.095-1.288-.317-1.444-.956l.586-.075zM11.036 28.715c.36.13.512.136.609-.175l.094-.301-.505-.158.144-.462.505.158.712-2.283.569.178-.712 2.283.392.122-.144.462-.392-.122-.109.349c-.181.58-.492.707-.943.566a2.063 2.063 0 0 1-.364-.155l.144-.462zM10.993 24.692c.788.435.964 1.245.532 2.029s-1.212 1.067-2 .632c-.788-.435-.964-1.245-.532-2.029s1.212-1.067 2-.632zm-.234.424c-.493-.272-.964-.024-1.249.493-.288.522-.244 1.048.249 1.32s.961.029 1.249-.493c.285-.517.244-1.048-.249-1.32z"/>
      <path d="M8.902 23.159c.653.62.618 1.449.002 2.097s-1.442.725-2.095.105c-.653-.62-.618-1.449-.002-2.097s1.442-.725 2.095-.105zm-.333.35c-.408-.388-.926-.267-1.333.161-.411.432-.501.952-.093 1.34s.922.271 1.333-.161c.407-.428.501-.952.093-1.34z"/>
      <path d="m3.389 22.669-.304-.506 3.449-2.072.304.506-.285.171.006.01c.247.029.58.157.809.538.38.632.169 1.395-.642 1.882s-1.583.314-1.963-.317c-.229-.381-.195-.729-.085-.973l-.006-.01-1.283.771zm3.512-1.191c-.249-.415-.745-.465-1.29-.137-.55.33-.734.789-.485 1.204.267.444.814.437 1.296.147s.745-.769.479-1.213zM5.768 16.237c.035.9-.568 1.469-1.462 1.503s-1.539-.487-1.574-1.386.568-1.469 1.462-1.504c.894-.035 1.539.487 1.574 1.386zm-.484.018c-.022-.562-.477-.837-1.067-.815-.596.023-1.023.332-1.002.895s.472.838 1.067.815c.59-.023 1.023-.332 1.002-.895zM3.042 12.923c.018-.1.036-.171.062-.252l.548.098-.002.011c-.194.543.102 1.059.706 1.167l1.446.259-.104.582-2.83-.506.104-.582.532.095.002-.011c-.328-.213-.53-.489-.463-.86zM4.051 10.203l.226-.546 2.474 1.025c.764.316.91.919.598 1.673-.316.764-.891 1.019-1.362.891l.228-.551c.255.045.51-.069.688-.5.189-.457.078-.777-.4-.976l-.322-.133-.004.01c.139.222.236.548.061.969-.276.665-.945.973-1.782.626-.842-.349-1.093-1.037-.817-1.703.174-.421.473-.584.718-.646l.004-.01-.312-.129zm1.784 1.574c.183-.442.002-.828-.56-1.06s-.962-.088-1.145.354c-.198.478.059.871.553 1.076.489.202.954.109 1.152-.369zM6.325 8.036c-.166-.126-.366-.123-.605.19-.286.376-.276.603.003.851l-.348.457c-.422-.356-.552-.901-.027-1.59.385-.506.864-.735 1.473-.272l1.088.828c.161.123.273.152.395-.046l.224.17a.908.908 0 0 1-.159.311c-.191.251-.369.299-.627.173l-.007.009c.092.297.033.662-.236 1.016-.354.466-.841.548-1.226.254-.501-.382-.375-.873-.051-1.531.202-.405.321-.654.102-.821zm.882 1.711c.297-.389.309-.805-.063-1.088l-.345-.262c-.004.117-.09.341-.213.595-.211.454-.229.71.004.887.21.16.422.123.616-.132zM7.935 5.343c.42-.33.943-.347 1.35.171l1.226 1.562-.469.368-1.122-1.43c-.24-.305-.521-.399-.84-.149-.359.281-.418.679-.154 1.015l1.08 1.377-.465.365L6.766 6.36l.465-.365.229.292.009-.007c-.019-.271.076-.632.466-.938zM9.554 3.834c-.145.075-.347.053-.44-.127s.007-.352.152-.427c.155-.08.349-.06.442.119s0 .355-.155.435zm-.037.565.524-.272 1.323 2.553-.524.272-1.323-2.553zM13.06 4.122c-.106-.274-.385-.56-.87-.415-.555.166-.65.712-.495 1.229s.529.922 1.089.754c.485-.145.563-.533.492-.846l.566-.17c.147.649-.202 1.265-.919 1.48-.825.247-1.536-.186-1.794-1.048s.097-1.615.917-1.861c.717-.215 1.323.103 1.58.707l-.566.17zM18.518 2.329c-.377-.07-.527-.051-.572.272l-.044.312.524.073-.067.479-.524-.073-.331 2.368-.591-.082.331-2.368-.407-.057.067-.479.407.057.051-.362c.084-.602.37-.778.838-.712.145.02.271.055.385.093l-.067.479zM19.227 6.287c-.849-.3-1.155-1.071-.856-1.915s1.021-1.25 1.87-.95c.849.3 1.155 1.071.856 1.915s-1.021 1.25-1.87.95zm.161-.457c.53.188.954-.134 1.152-.691.199-.562.07-1.074-.461-1.261s-.953.128-1.152.691c-.197.557-.07 1.074.461 1.261z"/>
      <path d="M21.506 7.43c-.745-.505-.846-1.329-.344-2.069s1.304-.951 2.049-.446c.745.505.846 1.329.344 2.069s-1.304.951-2.049.446zm.271-.401c.466.316.957.112 1.289-.377.335-.494.339-1.021-.127-1.337s-.954-.117-1.289.377c-.332.489-.339 1.021.127 1.337zM27.085 7.066l.381.451-3.072 2.597-.381-.451.253-.214-.007-.009a1.077 1.077 0 0 1-.885-.402c-.476-.563-.39-1.35.332-1.96s1.512-.564 1.988-.001c.287.339.31.689.24.946l.007.009 1.143-.966zm-3.276 1.738c.312.37.81.339 1.296-.071.49-.414.598-.896.286-1.266-.334-.395-.873-.301-1.303.063s-.613.879-.278 1.274z"/>
    </symbol>
    <symbol id="icon-circle-leaf" viewBox="0 0 32 32">
    <path fill="#fdc152" style="fill: var(--color1, #fdc152)" d="M32 16c0 8.837-7.163 16-16 16s-16-7.163-16-16c0-8.837 7.163-16 16-16s16 7.163 16 16z"></path>
    <path fill="#010101" style="fill: var(--color2, #010101)" d="M17.6 14.72c-2.88 0.64-3.552 2.614-4.218 4.269l0.605 0.211 0.304-0.736c0.154 0.054 0.314 0.096 0.429 0.096 3.52 0 4.48-5.44 4.48-5.44-0.32 0.64-2.56 0.72-4.16 1.040s-2.24 1.68-2.24 2.32c0 0.64 0.56 1.2 0.56 1.2 1.040-2.96 4.24-2.96 4.24-2.96z"></path>
	</symbol>
  <symbol id="icon-clean" viewBox="0 0 32 32">
  <path d="M18 14h-4c-0.6 0-1-0.4-1-1v-10c0-1.7 1.3-3 3-3s3 1.3 3 3v10c0 0.6-0.4 1-1 1z"></path>
  <path d="M24.7 20l-0.3-1.6c-0.4-1.4-1.6-2.4-3-2.4h-10.8c-1.4 0-2.6 1-2.9 2.4l-0.4 1.6h17.4z"></path>
  <path d="M6.9 22l-1.9 8.8c-0.1 0.3 0 0.6 0.2 0.8 0.2 0.3 0.5 0.4 0.8 0.4h4v-5c0-0.6 0.4-1 1-1s1 0.4 1 1v5h8v-3c0-0.6 0.4-1 1-1s1 0.4 1 1v3h4c0.3 0 0.6-0.1 0.8-0.4 0.2-0.2 0.3-0.5 0.2-0.8l-1.9-8.8h-18.2z"></path>
  </symbol>
</svg>
