<svg xmlns="http://www.w3.org/2000/svg" width="18" height="18" viewBox="0 0 18 18" fill="none">
<path d="M2.70005 0.899994C2.46135 0.899994 2.23244 0.994815 2.06365 1.1636C1.89487 1.33238 1.80005 1.5613 1.80005 1.79999C1.80005 2.03869 1.89487 2.26761 2.06365 2.43639C2.23244 2.60517 2.46135 2.69999 2.70005 2.69999H3.79805L4.07255 3.79979C4.07528 3.81246 4.07828 3.82506 4.08155 3.83759L5.30375 8.72459L4.50005 9.52739C3.36605 10.6614 4.16885 12.6 5.77265 12.6H13.5C13.7387 12.6 13.9677 12.5052 14.1364 12.3364C14.3052 12.1676 14.4 11.9387 14.4 11.7C14.4 11.4613 14.3052 11.2324 14.1364 11.0636C13.9677 10.8948 13.7387 10.8 13.5 10.8H5.77265L6.67265 9.89999H12.6C12.7671 9.8999 12.9309 9.8533 13.073 9.7654C13.2151 9.67749 13.33 9.55177 13.4046 9.40229L16.1046 4.00229C16.1732 3.86512 16.2056 3.7127 16.1987 3.5595C16.1918 3.4063 16.1458 3.25741 16.0652 3.12695C15.9846 2.99649 15.872 2.88879 15.7381 2.81406C15.6042 2.73934 15.4534 2.70008 15.3 2.69999H5.65205L5.37305 1.58129C5.32429 1.38667 5.21191 1.21392 5.05374 1.09048C4.89557 0.967046 4.70068 0.899999 4.50005 0.899994H2.70005ZM14.4 14.85C14.4 15.208 14.2578 15.5514 14.0046 15.8046C13.7515 16.0578 13.4081 16.2 13.05 16.2C12.692 16.2 12.3486 16.0578 12.0955 15.8046C11.8423 15.5514 11.7 15.208 11.7 14.85C11.7 14.492 11.8423 14.1486 12.0955 13.8954C12.3486 13.6422 12.692 13.5 13.05 13.5C13.4081 13.5 13.7515 13.6422 14.0046 13.8954C14.2578 14.1486 14.4 14.492 14.4 14.85ZM5.85005 16.2C6.20809 16.2 6.55147 16.0578 6.80464 15.8046C7.05782 15.5514 7.20005 15.208 7.20005 14.85C7.20005 14.492 7.05782 14.1486 6.80464 13.8954C6.55147 13.6422 6.20809 13.5 5.85005 13.5C5.49201 13.5 5.14863 13.6422 4.89545 13.8954C4.64228 14.1486 4.50005 14.492 4.50005 14.85C4.50005 15.208 4.64228 15.5514 4.89545 15.8046C5.14863 16.0578 5.49201 16.2 5.85005 16.2Z" fill="#E8E8E2"/>
</svg>